<svg height="122" viewBox="0 0 122 122" width="122" xmlns="http://www.w3.org/2000/svg"><g fill="none" fill-rule="evenodd" stroke="#c7c7c7" stroke-width="1.5"><path d="m112.708 30.712h.024l-.012.016h-.008c-.044.076-.088.152-.124.228-.018805.027062-.036162.0551013-.052.084-3.613499 6.0005344-10.107446 9.6683697-17.112 9.6650023 3.5659465-6.1760037 10.152458-9.9840927 17.284-9.9930023z" fill="#ff32ff"/><path d="m95.392 60.726c7.135334.0025787 13.728407 3.807887 17.3 9.985h-.024c-7.13083-.0037711-13.7191953-3.8074777-17.288-9.981z" fill="#ff32ff"/><path d="m78.049 110.718001c3.5509386-6.153476 10.1025491-9.958337 17.207-9.993001h.1c-3.5682458 6.184924-10.166576 9.994776-17.307 9.993001z" fill="#ff32ff"/><path d="m78.117 10.739c7.13677-.0027814 13.7323301 3.8039624 17.3 9.985h-.016c-7.1316281-.0037186-13.7202939-3.8093429-17.287-9.9850015z" fill="#ff32ff"/><path d="m60.789 40.733c-.0042317.0043957-.0070225.0099772-.008.016h-.008c-.005181-.0115262-.0119097-.0222921-.02-.032-3.5063502-6.0949899-3.5469966-13.5853156-.107-19.718l.131-.224c3.5645416 6.1740439 3.5691146 13.7796741.012 19.958z" fill="#ff32ff"/><path d="m60.722 80.716c-3.5071465-6.0932519-3.5481762-13.5826883-.108-19.714.044-.076.088-.148.131-.224 3.5646501 6.1725855 3.5692233 13.7771315.012 19.954-.004181.0044313-.0069635.0099964-.008.016h-.008c-.0051846-.0113082-.0115536-.0220348-.019-.032z" fill="#ff32ff"/><path d="m60.626 100.753c-7.1034556-.030611-13.6559495-3.8323372-17.208-9.9840052 7.1245837-.0051084 13.7117147 3.7877132 17.284 9.9520052l.02.032z" fill="#ff32ff"/><path d="m43.414 70.767c-7.1322362-.0014516-13.7219537-3.8076834-17.287-9.9850091 7.1260808-.0067933 13.715034 3.7868001 17.287 9.9530091l.02.032z" fill="#ff32ff"/><path d="m26.123 40.781c-7.1315474-.0010939-13.7211549-3.8055174-17.288-9.981v-.008h.02c7.1275871.0041623 13.7134304 3.8042442 17.284 9.973v.012z" fill="#ff32ff"/><path d="m8.799 90.773c-.00418096.0044313-.0069635.0099964-.008.016-3.57223306-6.1795087-3.57528287-13.7956324-.008-19.978h.008c3.5675186 6.1750565 3.570568 13.7840861.008 19.962z" fill="#ff32ff"/><g stroke-linecap="round" stroke-linejoin="round"><path d="m26.155 20.779c-7.1388692.0040259-13.7334238 3.8159072-17.3 10.0000013 7.0396964.0025798 13.5607867-3.7013417 17.164-9.7490013.044-.076.088-.148.132-.224l.012-.02"/><path d="m43.478 10.767c-7.1395894.0013431-13.7353891 3.8139441-17.3 10.0000001 7.0387141.0008363 13.5585612-3.702215 17.163-9.7480001.044-.076.088-.148.132-.224l.012-.02"/><path d="m60.801.754c-7.1390354.00340722-13.733877 3.81545441-17.3 10 7.0391147.0003783 13.5591926-3.70296827 17.164-9.749l.131-.224.012-.02"/><path d="m8.823 50.79c.00097753-.0060228.00376829-.0116043.008-.016 3.5611246-6.1786833 3.5565506-13.7876027-.012-19.962h-.008c-3.56728287 6.1823676-3.56423306 13.7984913.008 19.978"/><path d="m8.819 50.794v-.004"/><path d="m78.117 10.739c-3.5715703-6.18573071-10.1732159-9.99475367-17.316-9.99100277 3.5680514 6.17427871 10.1568944 9.97826077 17.288 9.98100277"/><path d="m8.803 70.787.012-.016c3.5612626-6.1768607 3.5566882-13.7844265-.012-19.957h-.008c-3.56742212 6.1805443-3.56437209 13.7953155.008 19.973"/><path d="m95.42 20.724c-3.5676699-6.1810376-10.16323-9.9877814-17.3-9.9850015"/><path d="m95.424 20.727v-.004"/><path d="m78.109 10.739c3.5667061 6.1756571 10.1553719 9.9812814 17.287 9.985"/><path d="m8.791 90.789c.0010365-.0060036.00381904-.0115687.008-.016 3.5613308-6.1786282 3.5567567-13.787658-.012-19.962h-.008c-3.56728287 6.1823676-3.56423306 13.7984913.008 19.978"/><path d="m8.787 90.793v-.004"/><path d="m112.731 30.712c-3.572563-6.1804394-10.1693-9.9872457-17.308-9.988h-.008"/><path d="m95.42 20.728c3.569209 6.1729868 10.157432 9.9762296 17.288 9.98"/><path d="m26.095 100.773001s-.008-.008001-.008-.012001c-3.5730847-6.1739198-10.1666829-9.9745764-17.3-9.972l-.008-.0000013c3.5688306 6.1797473 10.1637678 9.9857503 17.3 9.9840013"/><path d="m112.531 31.048c-3.395755 6.1329685-3.325914 13.5976427.184 19.666"/><path d="m112.716 30.732h-.008c-.044.076-.088.152-.124.228"/><path d="m112.716 50.71c3.571728-6.1789806 3.571728-13.7950194 0-19.974"/><path d="m43.382 110.73c-3.5743734-6.163795-10.1617984-9.956508-17.287-9.953002 3.5677503 6.184898 10.1668485 9.993669 17.307 9.989006"/><path d="m112.7 70.707c3.569802-6.1777107 3.569802-13.7912893 0-19.969h-.008c-.06.1-.116.208-.176.311-3.395638 6.1315792-3.325794 13.5950429.184 19.662"/><path d="m60.69 120.715c-3.5740204-6.160727-10.1576279-9.952779-17.28-9.953h-.012c3.570156 6.182456 10.168759 9.989196 17.308 9.985003"/><path d="m77.931 110.738c-7.1045063.03446-13.6562111 3.839375-17.207 9.993 7.1402027.00095 13.7381495-3.808681 17.307-9.993"/><path d="m95.256 100.725c-7.1044509.034664-13.6560614 3.839525-17.207 9.993001 7.140424.001775 13.7387542-3.808077 17.307-9.993001"/><path d="m112.684 90.709c3.569869-6.1794793 3.569869-13.7945207 0-19.974h-.008c-.06.1-.116.208-.176.312-3.395755 6.1329685-3.325914 13.5976427.184 19.666"/><path d="m112.68 90.713c-7.140188-.0008944-13.7382635 3.8082096-17.308 9.992 7.14112.000467 13.74019-3.8083311 17.312-9.9920002"/><path d="m26.147 40.777c.0010365-.0060036.003819-.0115687.008-.016 3.559587-6.1772823 3.5565381-13.7835733-.008-19.958-.044.076-.088.152-.124.228-1.6540488 2.9947386-2.5320719 6.3559102-2.554 9.777.0008953 3.4975728.9231763 6.9331901 2.674 9.961l.008.012"/><path d="m26.139 40.777v-.012c-3.5705696-6.1687558-10.1564129-9.9688377-17.284-9.973h-.02v.008c3.5668451 6.1754826 10.1564526 9.9799061 17.288 9.981"/><path d="m26.143 40.781v-.004"/><path d="m26.139 40.781h-.016c-7.135412.0052184-13.7258335 3.8173548-17.288 10 7.0390618.0001782 13.5590479-3.7031162 17.164-9.749.044-.076.088-.148.132-.224l.012-.02"/><path d="m43.474 30.764c.0009775-.0060228.0037683-.0116043.008-.016 3.5567302-6.1780714 3.5521573-13.7832103-.012-19.957-.044.076-.088.152-.124.228-3.4381068 6.132913-3.3970846 13.6221183.108 19.717"/><path d="m43.466 30.764v.004"/><path d="m43.466 30.764c-.0052341-.0114978-.0119585-.0222568-.02-.032-3.5698551-6.1605064-10.1509084-9.9530618-17.271-9.953h-.02c3.5648952 6.1774676 10.1547085 9.9837547 17.287 9.985"/><path d="m43.47 30.768v-.004"/><path d="m60.797 20.748c.0012168-.0056478.0039877-.0108432.008-.015 3.5573204-6.178271 3.5527473-13.78401126-.012-19.958-.044.076-.087.152-.123.228-3.4399966 6.13268438-3.3993502 13.6230101.107 19.718"/><path d="m60.789 20.752v.004"/><path d="m60.789 20.748c-.0054568-.0110655-.0121675-.0214671-.02-.031-3.5695925-6.1612926-10.15036-9.9552074-17.271-9.957h-.02c3.5536959 6.1500206 10.1051535 9.9511452 17.208 9.984"/><path d="m26.131 60.774s-.008-.008-.008-.012c-3.5732354-6.1737689-10.166738-9.9743705-17.3-9.972l-.008-.0000011v.0080011c3.5680026 6.1717181 10.1551332 9.9736861 17.284 9.976"/><path d="m26.123 60.778h-.016c-7.1345253.0085157-13.7234173 3.8197674-17.288 10.0000035 7.0401197.0041817 13.5619477-3.7001588 17.164-9.7490035.044-.076.088-.148.132-.224l.012-.02"/><path d="m26.091 80.78c-7.135412.0052184-13.7258335 3.8173548-17.288 10 7.0391676.0005784 13.5593375-3.7028204 17.164-9.749.044-.076.088-.148.132-.224l.012-.02"/><path d="m26.095 100.777.012-.016c3.5595176-6.1755151 3.5564686-13.7803412-.008-19.953-.044.076-.088.152-.124.228-3.442473 6.1386285-3.3968758 13.6366925.12 19.733l.008.012"/><path d="m43.398 90.765c-7.1340018.0094899-13.7221437 3.8205282-17.287 10.000002 7.0394985.002828 13.5604043-3.7012047 17.163-9.749002.044-.076.088-.148.132-.223l.012-.02"/><path d="m43.402 110.762c.0009775-.006023.0037683-.011604.008-.016 3.5567302-6.178071 3.5521573-13.7832103-.012-19.957-.044.075-.088.151-.124.227-3.4390865 6.1330155-3.398062 13.623025.108 19.718z"/><path d="m60.626 100.753c-7.1046977.034717-13.6565825 3.839516-17.208 9.993 7.0392204.000779 13.5594823-3.702672 17.164-9.749.044-.076.088-.148.132-.224l.012-.02"/><path d="m60.71 120.748.012-.02c3.558253-6.176593 3.5536794-13.781691-.012-19.954-.044.076-.088.152-.124.228-3.4401762 6.131312-3.3991465 13.620748.108 19.714l.02.032"/><path d="m78.037 90.757h-.006c-.044.076-.088.151-.124.227-3.4396876 6.1328602-3.3986614 13.623187.108 19.718"/><path d="m78.037 110.738.012-.02c3.5602314-6.177136 3.5556574-13.7841497-.012-19.957"/><path d="m78.033 110.734v.004"/><path d="m60.726 100.753c3.5542752 6.148559 10.1051281 9.948411 17.207 9.981h.1c-.005181-.011526-.0119097-.022292-.02-.032-3.5742756-6.16158-10.1587628-9.95408-17.282-9.954"/><path d="m95.36 80.748h-.008c-.044.076-.088.152-.124.228-3.4391083 6.1326544-3.3980832 13.622388.108 19.717"/><path d="m95.36 100.725.012-.02c3.5612626-6.1768607 3.5566882-13.7844265-.012-19.957"/><path d="m95.356 100.721v.004"/><path d="m78.049 90.7409993c3.5523198 6.1509079 10.1040683 9.9524227 17.207 9.9840007h.1c-.005181-.011526-.0119097-.022292-.02-.032-3.5742109-6.1618719-10.1595426-9.9538769-17.283-9.952"/><path d="m95.368 80.7239958c3.5707604 6.1818558 10.16898 9.9883743 17.308 9.9850064-3.569854-6.1827609-10.168649-9.9896112-17.308-9.9850064"/><path d="m60.805 20.7360032c7.0400668.0039814 13.5618025-3.7003067 17.164-9.7490032.044-.076.088-.148.132-.224l.012-.02h-.024c-7.1314312.0093208-13.7177523 3.8172996-17.284 9.9930032z"/><path d="m78.105 30.736c.0009775-.0060228.0037683-.0116043.008-.016 3.558171-6.1776867 3.5535976-13.7835967-.012-19.957-.044.076-.088.152-.124.228-3.4397095 6.132499-3.3986827 13.6225499.108 19.717"/><path d="m78.097 30.736v.004"/><path d="m95.408 20.748.012-.016h-.024c-7.1329056.0057808-13.7216195 3.8141009-17.287 9.9920008 7.0392869.0020274 13.5598242-3.7017958 17.163-9.7490008.044-.076.088-.148.132-.224"/><path d="m95.408 40.725.012-.02c3.5613457-6.175767 3.5567712-13.7825209-.012-19.954h-.008c-.044.075-.088.151-.124.227-3.4391737 6.1315707-3.3981469 13.6204781.108 19.714"/><path d="m95.404 40.721v.004"/><path d="m95.42 40.7050023c7.004554.0033674 13.498501-3.6644679 17.112-9.6650023.015838-.0288987.033195-.056938.052-.084.044-.076.088-.148.132-.224l.012-.016h-.024c-7.130717.0080838-13.7170381 3.8145382-17.284 9.9890023z"/><path d="m112.716 50.714c-3.569854-6.1827587-10.168649-9.989609-17.308-9.9850042"/><path d="m95.4 40.725c3.5667341 6.176117 10.155959 9.9818444 17.288 9.985"/><path d="m95.404 60.7060008c7.004189.0019806 13.4975-3.6654955 17.112-9.6650008.068-.1.128-.2.188-.307l.012-.02h-.024c-7.133152.0058358-13.7221391 3.8140933-17.288 9.9920008z"/><path d="m112.7 70.711c-3.571593-6.177113-10.164666-9.9824213-17.3-9.985"/><path d="m95.388 60.726c3.5688047 6.1735223 10.15717 9.9772289 17.288 9.981"/><path d="m95.388 80.7040023c7.004554.0033674 13.498501-3.6644679 17.112-9.6650023.068-.1.128-.2.188-.308l.012-.02h-.024c-7.132971.0074829-13.7213379 3.815763-17.288 9.9930023z"/><path d="m43.462 30.768h-.016c-7.1350546.0055756-13.725012 3.8176641-17.287 10 7.0389167.0006264 13.5588097-3.7028309 17.163-9.749.044-.076.088-.148.132-.224l.012-.02"/><path d="m43.47 30.768h-.004"/><path d="m60.785 20.755h-.095c-7.1048641.0341047-13.6570314 3.839068-17.208 9.9930035 7.0401197.0041817 13.5619477-3.7001588 17.164-9.7490035l.131-.224.012-.016"/><path d="m26.131 60.778.012-.016c3.5595176-6.1755151 3.5564686-13.7803412-.008-19.953-.044.076-.088.152-.124.228-3.4477054 6.1372775-3.4020915 13.6381072.12 19.733l.008.012"/><path d="m78.097 30.736c-.0052027-.0115146-.0119296-.0222776-.02-.032-3.5741705-6.1605769-10.1576828-9.9525733-17.28-9.953"/><path d="m78.101 30.74v-.004"/><path d="m60.785 20.755c3.5540067 6.1493138 10.1056044 9.9493775 17.208 9.981"/><path d="m26.115 80.776c.0010365-.0060036.003819-.0115687.008-.016 3.5593811-6.1773374 3.5563322-13.7835181-.008-19.958-.044.076-.088.152-.124.228-3.4477924 6.1390329-3.402181 13.6413421.12 19.738l.008.012"/><path d="m95.408 40.725c-.0052341-.0114978-.0119585-.0222568-.02-.032-3.5736911-6.160569-10.1569302-9.9526275-17.279-9.953h-.012"/><path d="m78.097 30.74c3.5683245 6.1735146 10.1564173 9.9772836 17.287 9.981"/><path d="m43.398 90.729c-3.5738073-6.1624074-10.1592819-9.9548756-17.283-9.9530007"/><path d="m26.111 80.78c3.5665155 6.1753242 10.1557546 9.979755 17.287 9.981h.016"/><path d="m26.107 80.776v.004"/><path d="m43.418 90.765c3.5520505 6.1516628 10.1045444 9.953389 17.208 9.984h.1"/><path d="m60.706 100.717c-3.5722853-6.164292-10.1594163-9.9571136-17.284-9.9520052"/><path d="m43.454 50.766.012-.02c3.5566058-6.1770334 3.5520328-13.7812489-.012-19.954-.044.076-.088.152-.124.228-3.4381718 6.1318296-3.3971479 13.6202083.108 19.714"/><path d="m43.45 50.762v.004"/><path d="m43.454 50.766c-.0051472-.0115442-.0118787-.0223146-.02-.032-3.5738073-6.1624074-10.1592819-9.9548756-17.283-9.9530007"/><path d="m26.139 40.777c3.5660628 6.175777 10.1555889 9.9803735 17.287 9.981"/><path d="m43.446 50.766h-.016c-7.1340572.0092841-13.7222945 3.8203776-17.287 10.0000014 7.0394456.002628 13.5602593-3.7013522 17.163-9.7490014.044-.075.088-.147.132-.223l.012-.02"/><path d="m60.781 40.748c.0009775-.0060228.0037683-.0116043.008-.016 3.5571146-6.1783259 3.5525416-13.7839561-.012-19.958-.043.076-.087.152-.123.228-3.4399966 6.1326844-3.3993502 13.6230101.107 19.718"/><path d="m60.773 40.749v.004"/><path d="m60.773 40.748c-.005181-.0115262-.0119097-.0222921-.02-.032-3.5736911-6.160569-10.1569302-9.9526275-17.279-9.953h-.012c3.5540067 6.1493138 10.1056044 9.9493775 17.208 9.981"/><path d="m60.777 40.753v-.004"/><path d="m78.085 30.76.012-.016h-.1c-7.1046977.0347165-13.6565825 3.8395157-17.208 9.9930003 7.0393262.0011786 13.559772-3.7023769 17.164-9.7490003.044-.076.088-.148.132-.224"/><path d="m43.414 70.731c-3.571966-6.166209-10.1609192-9.9598024-17.287-9.9530091 3.5650463 6.1773257 10.1547638 9.9835575 17.287 9.9850091"/><path d="m43.431 70.767h-.016c-7.1350546.0055756-13.725012 3.8176641-17.287 10 7.0389167.0006264 13.5588097-3.7028309 17.163-9.749.044-.076.088-.148.132-.224l.012-.02"/><path d="m78.085 50.738.012-.02c3.558253-6.1765935 3.5536794-13.7816907-.012-19.954h-.008c-.044.076-.088.152-.124.228-3.4397751 6.1314153-3.3987466 13.6206401.108 19.714"/><path d="m78.081 50.734v.004"/><path d="m95.392 40.748.012-.016h-.024c-7.1322822.0090733-13.7196132 3.8169751-17.287 9.9930021 7.0396044.0032287 13.5606945-3.7009085 17.163-9.7490021.044-.076.088-.148.132-.224"/><path d="m43.418 90.761.012-.02c3.5568116-6.1769784 3.5522385-13.7813041-.012-19.954-.044.076-.088.152-.124.228-3.4381718 6.1318296-3.3971479 13.6202083.108 19.714z"/><path d="m60.749 80.748c.0010365-.0060036.003819-.0115687.008-.016 3.5572233-6.1768685 3.5526501-13.7814145-.012-19.954-.043.076-.087.152-.123.228-3.4401762 6.1313117-3.3991465 13.6207481.108 19.714"/><path d="m60.741 80.748v.004"/><path d="m60.642 80.748c-7.1067677.0367307-13.6596191 3.8440931-17.211 10 7.0391147.0003783 13.5591926-3.7029683 17.164-9.749.044-.076.088-.148.131-.224l.012-.02"/><path d="m78.069 50.758h-.008c-.044.076-.088.152-.124.228-3.4397095 6.132499-3.3986827 13.6225499.108 19.717"/><path d="m78.073 70.735c.0010365-.0060036.003819-.0115687.008-.016 3.558171-6.1776867 3.5535976-13.7835967-.012-19.957"/><path d="m78.065 70.735v.004"/><path d="m78.065 70.735c-.0052341-.0114978-.0119585-.0222568-.02-.032-3.5741705-6.1605769-10.1576828-9.9525733-17.28-9.953"/><path d="m78.069 70.739v-.004"/><path d="m60.757 60.754c3.5549032 6.1484186 10.1059363 9.9481548 17.208 9.981"/><path d="m95.368 60.69c-3.5742109-6.1618719-10.1595426-9.9538769-17.283-9.9520007"/><path d="m95.392 60.722h-.004"/><path d="m78.077 50.738c3.5523198 6.1509072 10.1040683 9.9524215 17.207 9.984"/><path d="m60.731 100.748c.0010365-.006004.003819-.011569.008-.016 3.5592009-6.1774116 3.5546272-13.7838731-.012-19.957-.044.076-.088.152-.124.228-3.4401104 6.1323954-3.3990824 13.6226579.108 19.717l.02.032"/><path d="m78.053 70.759h-.008c-.044.076-.088.152-.124.228-3.4396876 6.1328602-3.3986614 13.6231865.108 19.718"/><path d="m78.053 90.737.012-.02c3.558253-6.1765935 3.5536794-13.7816907-.012-19.954"/><path d="m78.053 90.737c-.005181-.0115262-.0119097-.0222921-.02-.032-3.572106-6.16317-10.1564752-9.9571841-17.28-9.957"/><path d="m60.741 80.748c3.5543393 6.1495105 10.1052799 9.9507159 17.208 9.985"/><path d="m95.376 60.748h-.008c-.044.076-.088.152-.124.228-3.4391737 6.1315707-3.3981469 13.6204781.108 19.714"/><path d="m95.376 80.724.012-.02c3.5611394-6.1758222 3.5565649-13.7824655-.012-19.954"/><path d="m95.372 80.72v.004"/><path d="m95.376 80.724c-.005181-.0115262-.0119097-.0222921-.02-.032-3.5736911-6.160569-10.1569302-9.9526275-17.279-9.953"/><path d="m78.065 70.739c3.5683245 6.1735146 10.1564173 9.9772836 17.287 9.981"/><path d="m43.438 70.763h-.008c3.5541562 6.1491645 10.1056597 9.9491736 17.208 9.981h.1c-.0051846-.0113082-.0115536-.0220348-.019-.032-3.5743205-6.1604264-10.1577377-9.952368-17.28-9.953"/><path d="m60.757 80.7320001c7.0392204.0007785 13.5594823-3.7026726 17.164-9.7490001.044-.076.088-.148.132-.224l.012-.016h-.1c-7.1038749.0338892-13.6555697 3.8370552-17.208 9.9890001z"/><path d="m95.388 60.726h-.1c-7.1044509.0346636-13.6560614 3.8395246-17.207 9.9930008 7.0392869.0020274 13.5598242-3.7017958 17.163-9.7490008.044-.076.088-.148.132-.224l.012-.016"/><path d="m43.431 70.763c.0010365-.0060036.003819-.0115687.008-.016 3.5567302-6.1780714 3.5521573-13.7832103-.012-19.957-.044.076-.088.152-.124.227-3.4382853 6.1332225-3.3972632 13.6228089.108 19.718z"/><path d="m60.658 60.754c-7.1046977.0347165-13.6565825 3.8395157-17.208 9.9930001 7.0392204.0007785 13.5594823-3.7026726 17.164-9.7490001.044-.076.088-.148.131-.224l.012-.02"/><path d="m60.769 40.753h-.1c-7.1046977.0347165-13.6565825 3.8395157-17.208 9.993 7.0391147.0003783 13.5591926-3.7029683 17.164-9.749.044-.076.088-.148.131-.224l.012-.02"/><path d="m60.761 60.748c.0010365-.0060036.003819-.0115687.008-.016 3.5573475-6.1779066 3.5527744-13.7833759-.012-19.957-.043.076-.087.152-.123.228-3.4400184 6.1323232-3.3993715 13.6223734.107 19.717"/><path d="m60.757 60.748c-.0052027-.0115146-.0119296-.0222776-.02-.032-3.5716549-6.1644354-10.1586085-9.9573743-17.283-9.952l-.008-.0000057c3.5532474 6.150474 10.1049874 9.9517625 17.208 9.9840057h.1"/><path d="m78.085 50.738c-.0052341-.0114978-.0119585-.0222568-.02-.032-3.5738704-6.1608779-10.157573-9.952984-17.28-9.953"/><path d="m60.769 40.753c3.5688047 6.1735223 10.1571704 9.9772289 17.288 9.981"/><path d="m60.773 60.7340047c7.0400228.0047916 13.5619892-3.6992476 17.164-9.7480047.044-.076.088-.148.132-.224l.012-.016h-.024c-7.1303456.0084939-13.7163328 3.8143745-17.284 9.9880047z"/><path d="m95.392 60.722c.0009775-.0060228.0037683-.0116043.008-.016 3.5612626-6.1768607 3.5566882-13.7844265-.012-19.957h-.008c-.044.076-.088.152-.124.228-3.4391083 6.1326544-3.3980832 13.622388.108 19.717l.02.032"/><path d="m95.388 60.726h.004"/><path d="m78.049 90.741h-.1c-7.1047138.0336939-13.6569278 3.8383036-17.208 9.992007 7.0405433.005784 13.5631099-3.6989761 17.164-9.749007.044-.076.088-.147.132-.223l.012-.016"/><path d="m78.065 90.7170051c7.0400809.0050314 13.5620015-3.6995776 17.163-9.7490051.044-.076.088-.148.132-.224l.012-.016h-.024c-7.1299733.0098786-13.7151639 3.8159001-17.283 9.9890051z"/><circle cx="60.75" cy="60.751" r="60"/></g></g></svg>