<svg height="122" viewBox="0 0 122 122" width="122" xmlns="http://www.w3.org/2000/svg"><g fill="none" fill-rule="evenodd" stroke="#c7c7c7" stroke-width="1.5"><g transform="translate(5.75 .748)"><path d="m106.93 69.983c-.06.1-.116.208-.176.312-3.613642 6.0003873-10.1074981 9.6681713-17.112 9.6650021 3.5666621-6.1772391 10.1550287-9.9855192 17.288-9.9930021h.024l-.012.02z" fill="#64dcff"/><path d="m72.351 29.992c7.1220698.0003725 13.7053089 3.792431 17.279 9.953.0080415.0097432.0147659.0205022.02.032h-.02c-7.1305827-.0037164-13.7186755-3.8074854-17.287-9.981z" fill="#64dcff"/><path d="m72.311 50.01c-.044.076-.088.152-.124.228-3.602156 6.0486089-10.1240301 9.7525957-17.164 9.7480043 3.5653366-6.1794838 10.1537515-9.9904596 17.288-10.0000043h.016l-.012.016h-.008z" fill="#64dcff"/><path d="m37.748 10c3.5659719-6.18469655 10.1609093-9.99679907 17.3-10l-.012.02c-.044.076-.088.152-.124.228-3.6037719 6.04747959-10.1241718 9.7521486-17.164 9.752z" fill="#64dcff"/><path d="m54.995 80c7.1234698.0000214 13.7077438 3.7939806 17.28 9.957.0080903.0097079.014819.0204738.02.032h-.1c-7.1027201-.0342841-13.6536607-3.8354895-17.208-9.985z" fill="#64dcff"/><path d="m54.979 100.005c7.1222623.000632 13.7056795 3.792574 17.28 9.953.0081319.009678.0148644.02045.02.032h-.1c-7.1020637-.032845-13.6530968-3.832581-17.208-9.981z" fill="#64dcff"/><path d="m37.716 50c3.5509386-6.1534754 10.1025491-9.9583364 17.207-9.993h.1l-.012.02c-.044.076-.088.152-.124.228-3.6041903 6.0461691-10.1240833 9.7496264-17.163 9.749z" fill="#64dcff"/><path d="m37.668 90.013-.02-.032c-3.5051479-6.0937917-3.5461718-13.5821704-.108-19.714.044-.076.088-.148.132-.224 3.5638271 6.1728063 3.5684001 13.7769117.012 19.954l-.012.02z" fill="#64dcff"/><path d="m37.648 110.018004c-7.1401515.004663-13.7392497-3.804108-17.307-9.989006 7.1252016-.003506 13.7126266 3.789207 17.287 9.953002l.02.032z" fill="#64dcff"/><path d="m3.045 50.066h.008c3.56827583 6.1726843 3.57285007 13.780029.012 19.957l-.012.016c-3.57237209-6.1776845-3.57542212-13.7924557-.008-19.973z" fill="#64dcff"/><g stroke-linecap="round" stroke-linejoin="round"><path d="m20.4 20.031c-7.1388692.0040259-13.73342378 3.8159072-17.3 10.0000013 7.0396964.0025798 13.5607867-3.7013417 17.164-9.7490013.044-.076.088-.148.132-.224l.011-.02"/><path d="m37.728 10.019c-7.1394231.0019626-13.7349352 3.8143974-17.3 10.0000003 7.0390707.0011884 13.5593786-3.7019088 17.164-9.7480003.044-.076.088-.148.132-.224l.012-.02"/><path d="m55.051.006c-7.1390907.00320093-13.7340281 3.81530345-17.3 10 7.0388638.0004262 13.5586649-3.70297879 17.163-9.749.044-.076.088-.148.132-.224l.012-.02"/><path d="m3.073 50.042c.00097753-.0060228.00376829-.0116043.008-.016 3.56071231-6.1787935 3.5561384-13.787492-.012-19.962h-.008c-3.56728287 6.1823676-3.56423306 13.7984913.008 19.978"/><path d="m3.069 50.046v-.004"/><path d="m72.367 9.991c-3.5720787-6.18496091-10.1736285-9.99316612-17.316-9.98900341 3.5680514 6.17427935 10.1568944 9.97826143 17.288 9.98100341"/><path d="m3.053 70.039.012-.016c3.56085007-6.176971 3.55627583-13.7843157-.012-19.957h-.008c-3.56742212 6.1805443-3.56437209 13.7953155.008 19.973"/><path d="m89.67 19.976c-3.5676699-6.1810376-10.16323-9.98778142-17.3-9.98500152"/><path d="m89.674 19.979v-.004"/><path d="m72.359 9.991c3.5665553 6.1758079 10.1553167 9.9814874 17.287 9.985"/><path d="m3.041 90.041c.0010365-.0060036.00381904-.0115687.008-.016 3.56071231-6.1787935 3.5561384-13.787492-.012-19.962h-.008c-3.56728287 6.1823676-3.56423306 13.7984913.008 19.978"/><path d="m3.037 90.045v-.004"/><path d="m106.982 29.964c-3.572563-6.1804394-10.1692998-9.9872457-17.308-9.988h-.008"/><path d="m89.67 19.98c3.569209 6.1729868 10.1574317 9.9762296 17.288 9.98"/><path d="m20.345 100.025001s-.008-.008001-.008-.012001c-3.5730847-6.1739198-10.1666829-9.9745764-17.3-9.972l-.008-.0000013c3.5688306 6.1797473 10.1637678 9.9857503 17.3 9.9840013"/><path d="m106.966 29.984h-.008c-.044.076-.088.152-.124.228-3.444419 6.1453277-3.394253 13.6512611.132 19.75"/><path d="m106.966 49.962c3.571935-6.1789252 3.571935-13.7950748 0-19.974"/><path d="m37.632 109.982c-3.5743734-6.163795-10.1617984-9.956508-17.287-9.953002 3.5677503 6.184898 10.1668485 9.993669 17.307 9.989006"/><path d="m106.95 69.959c3.569802-6.1777107 3.569802-13.7912893 0-19.969h-.008c-.06.1-.116.208-.176.311-3.395838 6.1315287-3.325993 13.5950971.184 19.662"/><path d="m54.939 119.967c-3.5732408-6.161021-10.1567654-9.953244-17.279-9.953h-.012c3.5696752 6.182449 10.1680058 9.989251 17.307 9.985004"/><path d="m72.183 109.99c-7.1046977.034717-13.6565825 3.839516-17.208 9.993 7.1405047.001101 13.7388198-3.808523 17.308-9.993"/><path d="m89.506 99.977c-7.1044509.034664-13.6560614 3.839525-17.207 9.993001 7.140424.001775 13.7387542-3.808077 17.307-9.993001"/><path d="m106.934 89.961c3.569869-6.1794793 3.569869-13.7945207 0-19.974h-.008c-.06.1-.116.208-.176.312-3.395755 6.1329685-3.325914 13.5976427.184 19.666"/><path d="m106.93 89.965c-7.1401878-.0008944-13.7382635 3.8082096-17.308 9.992 7.1411195.000467 13.74019-3.8083311 17.312-9.9920002"/><path d="m20.4 40.029c.0010232-.0058155.0034234-.0113016.007-.016 3.5603082-6.1769938 3.5576403-13.7835052-.007-19.958-.044.076-.088.152-.124.228-1.6541589 2.9947422-2.5325111 6.3558574-2.555 9.777.0012464 3.4976575.9238707 6.9332688 2.675 9.961l.008.012"/><path d="m20.389 40.029v-.012c-3.5705696-6.1687558-10.1564129-9.9688377-17.284-9.973h-.02v.008c3.56669422 6.1756335 10.1563974 9.9801122 17.288 9.981"/><path d="m20.392 40.033v-.004"/><path d="m20.389 40.033h-.016c-7.135412.0052184-13.72583349 3.8173548-17.288 10 7.0390618.0001782 13.5590479-3.7031162 17.164-9.749.044-.076.088-.148.132-.224l.012-.02"/><path d="m37.724 30.016c.0009775-.0060228.0037683-.0116043.008-.016 3.5563188-6.1781813 3.551746-13.7831-.012-19.957-.044.076-.088.152-.124.228-3.4381068 6.132913-3.3970846 13.6221183.108 19.717"/><path d="m37.716 30.016v.004"/><path d="m37.716 30.016c-.005181-.0115262-.0119097-.0222921-.02-.032-3.5701844-6.1606648-10.1516062-9.9532129-17.272-9.953h-.02c3.5655269 6.177324 10.1555171 9.9834932 17.288 9.985"/><path d="m37.72 30.02v-.004"/><path d="m55.047 20c.0012168-.0056478.0039877-.0108432.008-.015 3.5573204-6.178271 3.5527473-13.78401126-.012-19.958-.044.076-.088.152-.124.228-3.4392869 6.13296378-3.3982618 13.6230786.108 19.718"/><path d="m55.039 20.004v.004"/><path d="m55.039 20c-.0054004-.0110974-.0121152-.0215054-.02-.031-3.5695925-6.1612926-10.15036-9.9552074-17.271-9.957h-.02c3.5532172 6.1500117 10.1044005 9.9511981 17.207 9.984"/><path d="m20.377 60.026s-.008-.008-.008-.012c-3.5732354-6.1737689-10.166738-9.9743705-17.3-9.972l-.008-.0000011v.0080011c3.56800262 6.1717181 10.1551332 9.9736861 17.284 9.976"/><path d="m20.373 60.03h-.016c-7.1345253.0085157-13.72341733 3.8197674-17.288 10.0000035 7.0401197.0041817 13.5619477-3.7001588 17.164-9.7490035.044-.076.088-.148.132-.224l.012-.02"/><path d="m20.341 80.032c-7.135412.0052184-13.72583349 3.8173548-17.288 10 7.0390618.0001782 13.5590479-3.7031162 17.164-9.749.044-.076.088-.148.132-.224l.012-.02"/><path d="m20.345 100.029.012-.016c3.5595176-6.1755151 3.5564686-13.7803412-.008-19.953-.044.076-.088.152-.124.228-3.4436789 6.1383173-3.398078 13.6370184.12 19.733l.008.012"/><path d="m37.648 90.017c-7.1340018.0094899-13.7221437 3.8205282-17.287 10.000002 7.0394985.002828 13.5604043-3.7012047 17.163-9.749002.044-.076.088-.148.132-.223l.012-.02"/><path d="m37.652 110.014c.0009775-.006023.0037683-.011604.008-.016 3.5563188-6.178181 3.551746-13.7831-.012-19.957-.044.075-.088.151-.124.227-3.4396876 6.1328602-3.3986614 13.623187.108 19.718z"/><path d="m54.875 100.005c-7.1044509.034664-13.6560614 3.839525-17.207 9.993 7.0390225.001027 13.5590995-3.702535 17.163-9.749.044-.076.088-.148.132-.224l.012-.02"/><path d="m54.959 120 .012-.02c3.5592832-6.176318 3.5547093-13.781967-.012-19.954-.044.076-.088.152-.124.228-3.4391737 6.131571-3.3981469 13.620478.108 19.714l.02.032"/><path d="m72.287 90.009h-.008c-.044.076-.088.151-.124.227-3.4400885 6.1327567-3.3990611 13.623294.108 19.718"/><path d="m72.287 109.99.012-.02c3.5602314-6.177136 3.5556574-13.7841497-.012-19.957"/><path d="m72.283 109.986v.004"/><path d="m54.975 100.005c3.5549032 6.148419 10.1059363 9.948155 17.208 9.981h.1c-.0051356-.01155-.0118681-.022322-.02-.032-3.5743205-6.160426-10.1577377-9.952368-17.28-9.953"/><path d="m89.61 80h-.008c-.044.076-.088.152-.124.228-3.4391083 6.1326544-3.3980832 13.622388.108 19.717"/><path d="m89.61 99.977.012-.02c3.5608501-6.176971 3.5562758-13.7843157-.012-19.957"/><path d="m89.606 99.973v.004"/><path d="m72.3 89.9929993c3.5523198 6.1509079 10.1040683 9.9524222 17.207 9.9840007h.1c-.005181-.0115262-.0119097-.0222921-.02-.032-3.5742109-6.1618719-10.1595426-9.9538769-17.283-9.952"/><path d="m89.618 79.9759958c3.5707604 6.1818558 10.1689799 9.9883743 17.308 9.9850064-3.569854-6.1827609-10.1686486-9.9896112-17.308-9.9850064"/><path d="m55.055 19.9880032c7.0400668.0039814 13.5618025-3.7003067 17.164-9.7490032.044-.076.088-.148.132-.224l.012-.02h-.024c-7.1314312.0093208-13.7177523 3.8172996-17.284 9.9930032z"/><path d="m72.355 29.988c.0009775-.0060228.0037683-.0116043.008-.016 3.558171-6.1776867 3.5535976-13.7835967-.012-19.957-.044.076-.088.152-.124.228-3.4401104 6.1323954-3.3990824 13.6226579.108 19.717"/><path d="m72.347 29.988v.004"/><path d="m89.658 20 .012-.016h-.024c-7.1329609.0055749-13.7217703 3.8139502-17.287 9.9920008 7.0392869.0020274 13.5598242-3.7017958 17.163-9.7490008.044-.076.088-.148.132-.224"/><path d="m89.658 39.977.012-.02c3.5607267-6.1759325 3.5561523-13.7823547-.012-19.954h-.008c-.044.075-.088.151-.124.227-3.4391737 6.1315707-3.3981469 13.6204781.108 19.714"/><path d="m89.654 39.973v.004"/><path d="m89.67 39.9570023c7.039908.0033807 13.561367-3.7007503 17.164-9.7490023.044-.076.088-.148.132-.224l.012-.016h-.024c-7.1307174.0080838-13.7170381 3.8145382-17.284 9.9890023z"/><path d="m106.966 49.966c-3.569854-6.1827587-10.1686486-9.989609-17.308-9.9850042"/><path d="m89.65 39.977c3.5667341 6.176117 10.1559593 9.9818444 17.288 9.985"/><path d="m89.654 59.9580006c7.0041372.0017826 13.497357-3.6656422 17.112-9.6650006.068-.1.128-.2.188-.307l.012-.02h-.024c-7.1331523.0058358-13.7221391 3.8140933-17.288 9.9920006z"/><path d="m106.95 69.963c-3.571593-6.177113-10.1646658-9.9824213-17.3-9.985"/><path d="m89.638 59.978c3.5688047 6.1735223 10.1571704 9.9772289 17.288 9.981"/><path d="m89.638 79.9560021c7.0045019.0031692 13.498358-3.6646148 17.112-9.6650021.068-.1.128-.2.188-.308l.012-.02h-.024c-7.1329713.0074829-13.7213379 3.815763-17.288 9.9930021z"/><path d="m37.712 30.02h-.016c-7.1352457.0058372-13.72538 3.8178075-17.288 10.0000002 7.0392733.0009785 13.5596272-3.7025247 17.164-9.7490002.044-.076.088-.148.132-.224l.012-.02"/><path d="m37.72 30.02h-.004"/><path d="m55.035 20.007h-.1c-7.1046173.0340516-13.6565105 3.8390769-17.207 9.993004 7.039922.0044304 13.5615656-3.7000213 17.163-9.749004.044-.076.088-.148.132-.224l.012-.016"/><path d="m20.377 60.03.012-.016c3.5595176-6.1755151 3.5564686-13.7803412-.008-19.953-.044.076-.088.152-.124.228-3.4491171 6.1369126-3.4034986 13.6384891.12 19.733l.008.012"/><path d="m72.347 29.988c-.0052027-.0115146-.0119296-.0222776-.02-.032-3.5743205-6.1604264-10.1577377-9.952368-17.28-9.953"/><path d="m72.351 29.992v-.004"/><path d="m55.035 20.007c3.5540067 6.1493138 10.1056044 9.9493775 17.208 9.981"/><path d="m20.365 80.028c.0010365-.0060036.003819-.0115687.008-.016 3.5593811-6.1773374 3.5563322-13.7835181-.008-19.958-.044.076-.088.152-.124.228-3.4490017 6.1387204-3.4033864 13.6416692.12 19.738l.008.012"/><path d="m89.658 39.977c-.0052341-.0114978-.0119585-.0222568-.02-.032-3.5736911-6.160569-10.1569302-9.9526275-17.279-9.953h-.012"/><path d="m72.347 29.992c3.5683245 6.1735146 10.1564173 9.9772836 17.287 9.981"/><path d="m37.648 89.981c-3.5738073-6.1624074-10.1592819-9.9548756-17.283-9.9530007"/><path d="m20.361 80.032c3.5665155 6.1753242 10.1557546 9.979755 17.287 9.981h.016"/><path d="m20.357 80.028v.004"/><path d="m37.668 90.017c3.5515715 6.151654 10.1037913 9.9534419 17.207 9.984h.1"/><path d="m54.955 99.969c-3.5716549-6.1644354-10.1586085-9.9573743-17.283-9.9520057"/><path d="m54.979 100.001h-.004"/><path d="m37.7 50.018.012-.02c3.5561943-6.1771432 3.5516214-13.7811385-.012-19.954-.044.076-.088.152-.124.228-3.4381718 6.1318296-3.3971479 13.6202083.108 19.714"/><path d="m37.7 50.014v.004"/><path d="m37.7 50.018c-.0051472-.0115442-.0118787-.0223146-.02-.032-3.5739575-6.1622567-10.1593368-9.9546701-17.283-9.953l-.008-.0000006c3.5662137 6.1756266 10.1556441 9.9801679 17.287 9.9810006"/><path d="m37.7 50.018h-.016c-7.1340572.0092841-13.7222945 3.8203776-17.287 10.0000014 7.0394456.002628 13.5602593-3.7013522 17.163-9.7490014.044-.075.088-.147.132-.223l.012-.02"/><path d="m55.031 40c.0010365-.0060036.003819-.0115687.008-.016 3.5573204-6.178271 3.5527473-13.7840113-.012-19.958-.044.076-.088.152-.124.228-3.4392869 6.1329638-3.3982618 13.6230786.108 19.718"/><path d="m55.023 40.001v.004"/><path d="m55.023 40c-.005181-.0115262-.0119097-.0222921-.02-.032-3.5736911-6.160569-10.1569302-9.9526275-17.279-9.953h-.012c3.5536775 6.1491556 10.1049068 9.9492265 17.207 9.981"/><path d="m55.027 40.005v-.004"/><path d="m72.335 30.012.012-.016h-.1c-7.1046977.0347165-13.6565825 3.8395157-17.208 9.9930002 7.0392733.0009785 13.5596272-3.7025247 17.164-9.7490002.044-.076.088-.148.132-.224"/><path d="m37.664 69.983c-3.571966-6.166209-10.1609192-9.9598024-17.287-9.9530091 3.5650463 6.1773257 10.1547638 9.9835575 17.287 9.9850091"/><path d="m37.68 70.019h-.016c-7.1350546.0055756-13.725012 3.8176641-17.287 10 7.0389167.0006264 13.5588097-3.7028309 17.163-9.749.044-.076.088-.148.132-.224l.012-.02"/><path d="m72.335 49.99.012-.02c3.558253-6.1765935 3.5536794-13.7816907-.012-19.954h-.008c-.044.076-.088.152-.124.228-3.4401762 6.1313117-3.3991465 13.6207481.108 19.714"/><path d="m72.331 49.986v.004"/><path d="m89.642 40 .012-.016h-.024c-7.1322822.0090733-13.7196132 3.8169751-17.287 9.9930021 7.0396044.0032287 13.5606945-3.7009085 17.163-9.7490021.044-.076.088-.148.132-.224"/><path d="m37.668 90.013.012-.02c3.5564001-6.1770883 3.5518271-13.7811937-.012-19.954-.044.076-.088.152-.124.228-3.4381718 6.1318296-3.3971479 13.6202083.108 19.714z"/><path d="m55 80c.0010365-.0060036.003819-.0115687.008-.016 3.5572233-6.1768685 3.5526501-13.7814145-.012-19.954-.044.076-.088.152-.124.228-3.4391737 6.1315707-3.3981469 13.6204781.108 19.714"/><path d="m54.991 80v.004"/><path d="m54.891 80c-7.1039519.0364979-13.6547155 3.840867-17.207 9.993 7.0389167.0006264 13.5588097-3.7028309 17.163-9.749.044-.076.088-.148.132-.224l.012-.02"/><path d="m72.319 50.01h-.008c-.044.076-.088.152-.124.228-3.4403109 6.1323436-3.3992824 13.6227119.108 19.717"/><path d="m72.323 69.987c.0010365-.0060036.003819-.0115687.008-.016 3.558171-6.1776867 3.5535976-13.7835967-.012-19.957"/><path d="m72.315 69.987v.004"/><path d="m72.315 69.987c-.005181-.0115262-.0119097-.0222921-.02-.032-3.5743205-6.1604264-10.1577377-9.952368-17.28-9.953"/><path d="m72.319 69.991v-.004"/><path d="m55.007 60.006c3.5549032 6.1484186 10.1059363 9.9481548 17.208 9.981"/><path d="m89.618 59.942c-3.5742109-6.1618719-10.1595426-9.9538769-17.283-9.9520007"/><path d="m72.327 49.99c3.5523198 6.1509072 10.1040683 9.9524215 17.207 9.984"/><path d="m54.979 100c.0010365-.0060036.003819-.0115687.008-.016 3.5592009-6.1774116 3.5546272-13.7838731-.012-19.957-.044.076-.088.152-.124.228-3.4391083 6.1326544-3.3980832 13.622388.108 19.717l.02.032"/><path d="m72.3 70.011h-.008c-.044.076-.088.152-.124.228-3.440289 6.1327049-3.399261 13.6233485.108 19.718"/><path d="m72.3 89.989.012-.02c3.558253-6.1765935 3.5536794-13.7816907-.012-19.954"/><path d="m72.3 89.989c-.005181-.0115262-.0119097-.0222921-.02-.032-3.5722562-6.1630194-10.1565302-9.9569786-17.28-9.957"/><path d="m54.991 80c3.5543393 6.1495105 10.1052799 9.9507159 17.208 9.985"/><path d="m89.626 60h-.008c-.044.076-.088.152-.124.228-3.4391737 6.1315707-3.3981469 13.6204781.108 19.714"/><path d="m89.626 79.976.012-.02c3.5607267-6.1759325 3.5561523-13.7823547-.012-19.954"/><path d="m89.622 79.972v.004"/><path d="m89.626 79.976c-.005181-.0115262-.0119097-.0222921-.02-.032-3.5736911-6.160569-10.1569302-9.9526275-17.279-9.953"/><path d="m72.315 69.991c3.5683245 6.1735146 10.1564173 9.9772836 17.287 9.981"/><path d="m37.688 70.015h-.008c3.5536775 6.1491556 10.1049068 9.9492265 17.207 9.981h.1c-.0051356-.0115504-.0118681-.0223223-.02-.032-3.5736911-6.160569-10.1569302-9.9526275-17.279-9.953"/><path d="m55.007 79.984c7.0391676.0005784 13.5593375-3.7028204 17.164-9.749.044-.076.088-.148.132-.224l.012-.016h-.1c-7.1038749.0338892-13.6555697 3.8370552-17.208 9.989z"/><path d="m89.638 59.978h-.1c-7.1044509.0346636-13.6560614 3.8395246-17.207 9.9930008 7.0392869.0020274 13.5598242-3.7017958 17.163-9.7490008.044-.076.088-.148.132-.224l.012-.016"/><path d="m37.684 70.015c.0010365-.0060036.003819-.0115687.008-.016 3.5563188-6.1781813 3.551746-13.7831-.012-19.957-.044.076-.088.152-.124.227-3.4380851 6.1332742-3.3970635 13.622755.108 19.718z"/><path d="m54.907 60.006c-7.1046012.0350743-13.6561651 3.840289-17.207 9.9940001 7.0389696.0008265 13.5589546-3.702683 17.163-9.7490001.044-.076.088-.148.132-.224l.012-.02"/><path d="m55.019 40.005h-.1c-7.1044509.0346636-13.6560614 3.8395246-17.207 9.993 7.0389167.0006264 13.5588097-3.7028309 17.163-9.749.044-.076.088-.148.132-.224z"/><path d="m55.011 60c.0010365-.0060036.003819-.0115687.008-.016 3.5573475-6.1779066 3.5527744-13.7833759-.012-19.957-.044.076-.088.152-.124.228-3.4393086 6.1326026-3.398283 13.6224419.108 19.717"/><path d="m55.007 60c-.0052027-.0115146-.0119296-.0222776-.02-.032-3.5718054-6.1642845-10.1586635-9.9571684-17.283-9.952l-.008-.0000053c3.5529181 6.1503154 10.1042898 9.9516111 17.207 9.9840053h.1"/><path d="m72.335 49.99c-.0052341-.0114978-.0119585-.0222568-.02-.032-3.5740204-6.1607274-10.1576279-9.9527786-17.28-9.953"/><path d="m55.019 40.005c3.5688047 6.1735223 10.1571704 9.9772289 17.288 9.981"/><path d="m55.023 59.9860043c7.0399699.0045914 13.561844-3.6993954 17.164-9.7480043.044-.076.088-.148.132-.224l.012-.016h-.024c-7.1303456.0084939-13.7163328 3.8143745-17.284 9.9880043z"/><path d="m89.642 59.974c.0009775-.0060228.0037683-.0116043.008-.016 3.5606438-6.1770261 3.5560697-13.7842604-.012-19.957h-.008c-.044.076-.088.152-.124.228-3.4391083 6.1326544-3.3980832 13.622388.108 19.717l.02.032"/><path d="m72.3 89.993h-.1c-7.1047138.0336939-13.6569278 3.8383036-17.208 9.9920059 7.0404374.0053835 13.5628192-3.6992716 17.164-9.7490059.044-.076.088-.147.132-.223l.012-.016"/><path d="m72.315 89.9690051c7.0400809.0050314 13.5620015-3.6995776 17.163-9.7490051.044-.076.088-.148.132-.224l.012-.016h-.024c-7.1299733.0098786-13.7151639 3.8159001-17.283 9.9890051z"/></g></g><circle cx="60.75" cy="60.751" r="60" stroke-linecap="round" stroke-linejoin="round"/></g></svg>