<svg height="122" viewBox="0 0 122 122" width="122" xmlns="http://www.w3.org/2000/svg"><g fill="none" fill-rule="evenodd" stroke="#c7c7c7" stroke-width="1.5"><g transform="translate(5.469 .748)"><path d="m107.214 89.965c-3.571178 6.1838125-10.170072 9.9927285-17.311 9.992 3.5694069-6.183632 10.167114-9.9927434 17.307-9.992z" fill="#507aff"/><path d="m89.915 40c-.044.076-.088.152-.124.228-3.6023055 6.0480936-10.1233956 9.7522308-17.163 9.7490021 3.5672363-6.1761775 10.1546625-9.9841343 17.287-9.9930021h.016l-.012.016h-.008z" fill="#507aff"/><path d="m72.644 29.972c-.0042317.0043957-.0070225.0099772-.008.016h-.008c-.0052027-.0115146-.0119296-.0222776-.02-.032-3.5070824-6.0943421-3.5481104-13.5846046-.108-19.717.044-.076.088-.148.132-.224 3.5655976 6.1734033 3.570171 13.7793133.012 19.957z" fill="#507aff"/><path d="m72.58 89.989c-.005181-.0115262-.0119097-.0222921-.02-.032-3.507261-6.0946515-3.548289-13.5852951-.108-19.718.044-.076.088-.148.132-.224 3.5656794 6.1723093 3.570253 13.7774065.012 19.954l-.012.02z" fill="#507aff"/><path d="m55.3 59.986c-.004181.0044313-.0069635.0099964-.008.016h-.008c-.0051699-.0115321-.0118995-.0222995-.02-.032-3.5060832-6.094612-3.5471083-13.5843456-.108-19.717.044-.076.088-.148.132-.224 3.5641573 6.1737897 3.5687302 13.7789286.012 19.957z" fill="#507aff"/><path d="m72.544 109.954c.0081319.009678.0148644.02045.02.032h-.1c-7.1020637-.032845-13.6530968-3.832581-17.208-9.981002 7.1242966-.003046 13.7112326 3.787643 17.288 9.949002z" fill="#507aff"/><path d="m20.7 20.015c3.5650648-6.1856026 10.1605769-9.9980374 17.3-10l-.012.02c-.044.076-.088.152-.124.228-3.6037719 6.0474796-10.1241718 9.7521486-17.164 9.752z" fill="#507aff"/><path d="m37.945 90.017-.012.02c-.044.075-.088.151-.124.227-3.6030682 6.0478076-10.1242507 9.751782-17.164 9.749002 3.5653366-6.1794815 10.1537515-9.9904573 17.288-10.000002z" fill="#507aff"/><path d="m20.677 40.029c7.1239105-.0016158 13.709563 3.7907355 17.284 9.953.0081213.0096854.0148528.0204558.02.032h-.02c-7.1316026-.0008878-13.7213058-3.8053665-17.288-9.981v-.008z" fill="#507aff"/><path d="m3.334 70.043c7.1335232-.0023699 13.7271691 3.7986954 17.3 9.973v.012h-.016c-7.1313006-.0010388-13.72063539-3.8055249-17.287-9.981v-.008z" fill="#507aff"/><g stroke-linecap="round" stroke-linejoin="round"><path d="m20.685 20.031c-7.13898.0036135-13.7337259 3.8156053-17.3 10.0000016 7.0394985.0028283 13.5604043-3.7012043 17.163-9.7490016.044-.076.088-.148.132-.224l.012-.02"/><path d="m38.009 10.019c-7.1394231.0019626-13.7349352 3.8143974-17.3 10.0000002 7.0390178.0009884 13.5592337-3.7020567 17.164-9.7480002.044-.076.088-.148.132-.224l.012-.02"/><path d="m55.332.006c-7.1390907.00320093-13.7340281 3.81530345-17.3 10 7.0388638.0004262 13.5586649-3.70297879 17.163-9.749.044-.076.088-.148.132-.224l.012-.02"/><path d="m3.354 50.042c.00097753-.0060228.00376829-.0116043.008-.016 3.56030012-6.1789036 3.55572634-13.7873814-.012-19.962h-.008c-3.56790224 6.1822019-3.5648523 13.7986576.008 19.978"/><path d="m3.35 50.046v-.004"/><path d="m72.648 9.991c-3.5720787-6.18496091-10.1736285-9.99316612-17.316-9.98900341 3.5680514 6.17427935 10.1568944 9.97826143 17.288 9.98100341"/><path d="m3.334 70.039.012-.016c3.56043762-6.1770812 3.55586351-13.784205-.012-19.957h-.008c-3.56783526 6.1804337-3.56478515 13.7954264.008 19.973"/><path d="m89.951 19.976c-3.5676699-6.1810376-10.16323-9.98778142-17.3-9.98500152"/><path d="m89.955 19.979v-.004"/><path d="m72.64 9.991c3.5665553 6.1758079 10.1553167 9.9814874 17.287 9.985"/><path d="m3.322 90.041c.0010365-.0060036.00381904-.0115687.008-.016 3.56030012-6.1789036 3.55572634-13.7873814-.012-19.962h-.008c-3.56790224 6.1822019-3.5648523 13.7986576.008 19.978"/><path d="m3.318 90.045v-.004"/><path d="m107.262 29.964c-3.571932-6.1805828-10.1684915-9.9875067-17.307-9.988h-.008"/><path d="m89.951 19.98c3.5687289 6.1729791 10.156679 9.9762843 17.287 9.98"/><path d="m20.625 100.025001s-.008-.008001-.008-.012001c-3.5717386-6.1728259-10.1633036-9.9734091-17.295-9.972l-.008-.0000004c3.56867957 6.1798975 10.1637126 9.9859554 17.3 9.9840004"/><path d="m107.246 29.984h-.008c-.044.076-.088.152-.124.228-3.443413 6.1455868-3.39325 13.6509886.132 19.75"/><path d="m107.246 49.962c3.572969-6.1786477 3.572969-13.7953523 0-19.974"/><path d="m37.913 109.982c-3.574853-6.163802-10.1625511-9.956454-17.288-9.953002 3.5683828 6.184754 10.1676572 9.993406 17.308 9.989006"/><path d="m107.23 69.959c3.570835-6.1774336 3.570835-13.7915664 0-19.969h-.008c-.06.1-.116.208-.175.311-3.395548 6.1315051-3.326086 13.5947584.183 19.662"/><path d="m55.22 119.967c-3.5732408-6.161021-10.1567654-9.953244-17.279-9.953h-.012c3.5701349 6.184073 10.1703706 9.991476 17.311 9.986006"/><path d="m72.464 109.99c-7.1046977.034717-13.6565825 3.839516-17.208 9.993 7.1405047.001101 13.7388198-3.808523 17.308-9.993"/><path d="m89.787 99.977c-7.1045063.03446-13.6562111 3.839375-17.207 9.993001 7.140424.001775 13.7387542-3.808077 17.307-9.993001"/><path d="m107.214 89.961c3.570902-6.1792023 3.570902-13.7947977 0-19.974h-.008c-.06.1-.116.208-.175.312-3.395665 6.1328944-3.326205 13.5973582.183 19.666"/><path d="m107.21 89.965c-7.139886-.0007434-13.7375931 3.808368-17.307 9.992 7.140928.0007285 13.739822-3.8081875 17.311-9.992"/><path d="m20.677 40.029c.0010365-.0060036.003819-.0115687.008-.016 3.5604108-6.1770621 3.5573617-13.7837942-.008-19.958-.044.076-.088.152-.124.228-1.6536119 2.9949131-2.5316055 6.3559716-2.554 9.777.0013662 3.4975106.923615 6.9330081 2.674 9.961l.008.012"/><path d="m20.669 40.029v-.012c-3.5700898-6.168748-10.1556599-9.9688921-17.283-9.973h-.02v.008c3.56636461 6.1754751 10.1556994 9.9799612 17.287 9.981"/><path d="m20.673 40.033v-.004"/><path d="m20.669 40.033h-.016c-7.1351655.005163-13.72531442 3.8173623-17.287 10 7.0388638.0004262 13.5586649-3.7029788 17.163-9.749.044-.076.088-.148.132-.224l.012-.02"/><path d="m38.005 30.016c.0010365-.0060036.003819-.0115687.008-.016 3.5563188-6.1781813 3.551746-13.7831-.012-19.957-.044.076-.088.152-.124.228-3.4381068 6.132913-3.3970846 13.6221183.108 19.717"/><path d="m37.997 30.016v.004"/><path d="m38 30.016c-.005181-.0115262-.0119097-.0222921-.02-.032-3.5703347-6.1605142-10.1516612-9.9530074-17.272-9.953h-.02c3.5655269 6.177324 10.1555171 9.9834932 17.288 9.985"/><path d="m38.001 30.02v-.004"/><path d="m55.328 20c.0012168-.0056478.0039877-.0108432.008-.015 3.5567031-6.1784358 3.5521303-13.78384573-.012-19.958-.044.076-.088.152-.124.228-3.4392869 6.13296378-3.3982618 13.6230786.108 19.718"/><path d="m55.32 20.004v.004"/><path d="m55.32 20c-.0054004-.0110974-.0121152-.0215054-.02-.031-3.5695925-6.1612926-10.15036-9.9552074-17.271-9.957h-.02c3.5532172 6.1500117 10.1044005 9.9511981 17.207 9.984"/><path d="m20.657 60.026s-.008-.008-.008-.012c-3.5727834-6.1742216-10.1665727-9.9749885-17.3-9.972l-.008-.0000018v.0080018c3.56752245 6.1717104 10.1543801 9.9737409 17.283 9.976"/><path d="m20.653 60.03h-.016c-7.1342787.0084608-13.72289781 3.8197751-17.287 10.0000043 7.0399749.0046308 13.5617109-3.6998733 17.163-9.7490043.044-.076.088-.148.132-.224l.012-.02"/><path d="m20.621 80.032c-7.1351655.005163-13.72531442 3.8173623-17.287 10 7.0389167.0006264 13.5588097-3.7028309 17.163-9.749.044-.076.088-.148.132-.224l.012-.02"/><path d="m20.625 100.029.012-.016c3.560548-6.1752396 3.5574987-13.7806175-.008-19.953-.044.076-.088.152-.124.228-3.442272 6.1386804-3.3966756 13.6366383.12 19.733l.008.012"/><path d="m37.929 90.017c-7.1342485.0095447-13.7226634 3.8205205-17.288 10.000002 7.0397493.00278 13.5609318-3.7011944 17.164-9.749002.044-.076.088-.148.132-.223l.012-.02"/><path d="m37.933 110.014c.0009775-.006023.0037683-.011604.008-.016 3.5563188-6.178181 3.551746-13.7831-.012-19.957-.044.075-.088.151-.124.227-3.440289 6.1327049-3.399261 13.623348.108 19.718z"/><path d="m55.156 100.005c-7.1044509.034664-13.6560614 3.839525-17.207 9.993 7.0390225.001027 13.5590995-3.702535 17.163-9.749.044-.076.088-.148.132-.224l.012-.02"/><path d="m55.24 120 .012-.02c3.5592832-6.176318 3.5547093-13.781967-.012-19.954-.044.076-.088.152-.124.228-3.4391737 6.131571-3.3981469 13.620478.108 19.714l.02.032"/><path d="m72.568 90.009h-.008c-.044.076-.088.151-.124.227-3.4400885 6.1327567-3.3990611 13.623294.108 19.718"/><path d="m72.568 109.99.012-.02c3.5602314-6.177136 3.5556574-13.7841497-.012-19.957"/><path d="m72.564 109.986v.004"/><path d="m55.256 100.005c3.5549032 6.148419 10.1059363 9.948155 17.208 9.981h.1c-.0051356-.01155-.0118681-.022322-.02-.032-3.5743205-6.160426-10.1577377-9.952368-17.28-9.953"/><path d="m89.891 80h-.008c-.044.076-.088.152-.124.228-3.4391083 6.1326544-3.3980832 13.622388.108 19.717"/><path d="m89.891 99.977.012-.02c3.5602314-6.1771363 3.5556574-13.7841497-.012-19.957"/><path d="m89.887 99.973v.004"/><path d="m72.58 89.9929993c3.5521702 6.1510573 10.1040129 9.9526263 17.207 9.9840007h.1c-.0051356-.0115504-.0118681-.0223223-.02-.032-3.5742109-6.1618719-10.1595426-9.9538769-17.283-9.952"/><path d="m89.9 79.9759957c3.5704308 6.1816974 10.168282 9.9882234 17.307 9.9850063-3.569373-6.1827535-10.1678953-9.9896666-17.307-9.9850063"/><path d="m55.336 19.9880029c7.0400139.0037811 13.5616573-3.7004546 17.164-9.7490029.044-.076.088-.148.132-.224l.012-.02h-.024c-7.1314312.0093208-13.7177523 3.8172996-17.284 9.9930029z"/><path d="m72.636 29.988c.0009775-.0060228.0037683-.0116043.008-.016 3.558171-6.1776867 3.5535976-13.7835967-.012-19.957-.044.076-.088.152-.124.228-3.4401104 6.1323954-3.3990824 13.6226579.108 19.717"/><path d="m72.628 29.988v.004"/><path d="m89.939 20 .012-.016h-.024c-7.1329609.0055749-13.7217703 3.8139502-17.287 9.9920008 7.0392869.0020274 13.5598242-3.7017958 17.163-9.7490008.044-.076.088-.148.132-.224"/><path d="m89.939 39.977.012-.02c3.5603142-6.1760428 3.5557399-13.7822439-.012-19.954h-.008c-.044.075-.088.151-.124.227-3.4397751 6.1314153-3.3987466 13.6206401.108 19.714"/><path d="m89.935 39.973v.004"/><path d="m89.951 39.9570027c7.0397102.0036292 13.560985-3.7006128 17.163-9.7490027.044-.076.088-.148.132-.224l.012-.016h-.024c-7.130471.0080292-13.7165182 3.814546-17.283 9.9890027z"/><path d="m107.246 49.966c-3.569222-6.1829027-10.16784-9.9898713-17.307-9.9850047"/><path d="m89.931 39.977c3.5664045 6.1759587 10.155261 9.9816934 17.287 9.985"/><path d="m89.935 59.9580006c7.0041372.0017826 13.497357-3.6656422 17.112-9.6650006.067-.1.127-.2.187-.307l.012-.02h-.024c-7.132906.0057808-13.7216195 3.8141009-17.287 9.9920006z"/><path d="m107.23 69.963c-3.571292-6.1774145-10.1645554-9.982833-17.3-9.985"/><path d="m89.919 59.978c3.5683245 6.1735146 10.156417 9.9772836 17.287 9.981"/><path d="m89.919 79.9560021c7.0045019.0031692 13.498358-3.6646148 17.112-9.6650021.067-.1.127-.2.187-.308l.012-.02h-.024c-7.132725.0074281-13.7208181 3.8157707-17.287 9.9930021z"/><path d="m37.993 30.02h-.016c-7.1352457.0058372-13.72538 3.8178075-17.288 10 7.0391676.0005784 13.5593375-3.7028204 17.164-9.749.044-.076.088-.148.132-.224l.012-.02"/><path d="m38.001 30.02h-.004"/><path d="m55.316 20.007h-.1c-7.1045618.0342556-13.6563608 3.8392261-17.207 9.993004 7.039922.0044304 13.5615656-3.7000213 17.163-9.749004.044-.076.088-.148.132-.224l.012-.016"/><path d="m20.657 60.03.012-.016c3.560548-6.1752396 3.5574987-13.7806175-.008-19.953-.044.076-.088.152-.124.228-3.4477054 6.1372775-3.4020915 13.6381072.12 19.733l.008.012"/><path d="m72.628 29.988c-.0052027-.0115146-.0119296-.0222776-.02-.032-3.5743205-6.1604264-10.1577377-9.952368-17.28-9.953"/><path d="m72.632 29.992v-.004"/><path d="m55.316 20.007c3.5540067 6.1493138 10.1056044 9.9493775 17.208 9.981"/><path d="m20.645 80.028c.0010365-.0060036.003819-.0115687.008-.016 3.5604108-6.1770621 3.5573617-13.7837942-.008-19.958-.044.076-.088.152-.124.228-3.4475909 6.1390849-3.4019802 13.6412876.12 19.738l.008.012"/><path d="m89.939 39.977c-.0052341-.0114978-.0119585-.0222568-.02-.032-3.5736911-6.160569-10.1569302-9.9526275-17.279-9.953h-.012"/><path d="m72.628 29.992c3.5681739 6.1736653 10.1563621 9.9774894 17.287 9.981"/><path d="m37.929 89.981c-3.574437-6.1622645-10.1600895-9.9546158-17.284-9.9530005"/><path d="m20.641 80.032c3.5671468 6.1751808 10.1565631 9.9794939 17.288 9.981h.016"/><path d="m20.637 80.028v.004"/><path d="m37.949 90.017c3.5515715 6.151654 10.1037913 9.9534419 17.207 9.984h.1"/><path d="m55.236 99.969c-3.5716549-6.1644354-10.1586085-9.9573743-17.283-9.9520057"/><path d="m55.26 100.001h-.004"/><path d="m37.985 50.018.012-.02c3.5561943-6.1771432 3.5516214-13.7811385-.012-19.954-.044.076-.088.152-.124.228-3.4381718 6.1318296-3.3971479 13.6202083.108 19.714"/><path d="m37.981 50.014v.004"/><path d="m37.985 50.018c-.0051472-.0115442-.0118787-.0223146-.02-.032-3.574437-6.1622645-10.1600895-9.9546158-17.284-9.953l-.008-.0000005c3.5666942 6.175634 10.1563974 9.9801127 17.288 9.9810005"/><path d="m37.977 50.018h-.016c-7.1342485.0095447-13.7226634 3.8205205-17.288 10.0000016 7.0397493.00278 13.5609318-3.701194 17.164-9.7490016.044-.075.088-.147.132-.223l.012-.02"/><path d="m55.312 40c.0010365-.0060036.003819-.0115687.008-.016 3.5567031-6.1784358 3.5521303-13.7838457-.012-19.958-.044.076-.088.152-.124.228-3.4392869 6.1329638-3.3982618 13.6230786.108 19.718"/><path d="m55.304 40.001v.004"/><path d="m55.3 40c-.005181-.0115262-.0119097-.0222921-.02-.032-3.5736911-6.160569-10.1569302-9.9526275-17.279-9.953h-.012c3.5536775 6.1491556 10.1049068 9.9492265 17.207 9.981"/><path d="m55.308 40.005v-.004"/><path d="m72.616 30.012.012-.016h-.1c-7.1046977.0347165-13.6565825 3.8395157-17.208 9.9930001 7.0392204.0007785 13.5594823-3.7026726 17.164-9.7490001.044-.076.088-.148.132-.224"/><path d="m37.945 69.983c-3.5725967-6.1660654-10.161727-9.9595414-17.288-9.9530084 3.5655269 6.1773324 10.1555171 9.9835016 17.288 9.9850084"/><path d="m37.961 70.019h-.016c-7.1352457.0058372-13.72538 3.8178075-17.288 10 7.0391676.0005784 13.5593375-3.7028204 17.164-9.749.044-.076.088-.148.132-.224l.012-.02"/><path d="m72.616 49.99.012-.02c3.558253-6.1765935 3.5536794-13.7816907-.012-19.954h-.008c-.044.076-.088.152-.124.228-3.4401762 6.1313117-3.3991465 13.6207481.108 19.714"/><path d="m72.612 49.986v.004"/><path d="m89.923 40 .012-.016h-.024c-7.1323375.0088678-13.7197637 3.8168246-17.287 9.9930021 7.0396044.0032287 13.5606945-3.7009085 17.163-9.7490021.044-.076.088-.148.132-.224"/><path d="m37.949 90.013.012-.02c3.5564001-6.1770883 3.5518271-13.7811937-.012-19.954-.044.076-.088.152-.124.228-3.4381718 6.1318296-3.3971479 13.6202083.108 19.714z"/><path d="m55.28 80c.0010365-.0060036.003819-.0115687.008-.016 3.5568116-6.1769784 3.5522385-13.7813041-.012-19.954-.044.076-.088.152-.124.228-3.4391737 6.1315707-3.3981469 13.6204781.108 19.714"/><path d="m55.272 80v.004"/><path d="m55.172 80c-7.1039519.0364979-13.6547155 3.840867-17.207 9.993 7.0389167.0006264 13.5588097-3.7028309 17.163-9.749.044-.076.088-.148.132-.224l.012-.02"/><path d="m72.6 50.01h-.008c-.044.076-.088.152-.124.228-3.4403109 6.1323436-3.3992824 13.6227119.108 19.717"/><path d="m72.6 69.987c.0010365-.0060036.003819-.0115687.008-.016 3.558171-6.1776867 3.5535976-13.7835967-.012-19.957"/><path d="m72.596 69.987v.004"/><path d="m72.6 69.987c-.005181-.0115262-.0119097-.0222921-.02-.032-3.5738139-6.1611959-10.1573263-9.9539544-17.28-9.955"/><path d="m72.6 69.991v-.004"/><path d="m55.288 60.006c3.5549032 6.1484186 10.1059363 9.9481548 17.208 9.981"/><path d="m89.9 59.942c-3.5742109-6.1618719-10.1595426-9.9538769-17.283-9.9520007"/><path d="m72.608 49.99c3.5521702 6.1510566 10.1040129 9.9526256 17.207 9.984"/><path d="m55.26 100c.0009775-.0060228.0037683-.0116043.008-.016 3.5587889-6.1775217 3.5542153-13.7837625-.012-19.957-.044.076-.088.152-.124.228-3.4391083 6.1326544-3.3980832 13.622388.108 19.717l.02.032"/><path d="m72.584 70.011h-.008c-.044.076-.088.152-.124.228-3.440289 6.1327049-3.399261 13.6233485.108 19.718"/><path d="m72.584 89.989.012-.02c3.558253-6.1765935 3.5536794-13.7816907-.012-19.954"/><path d="m72.584 89.989c-.005181-.0115262-.0119097-.0222921-.02-.032-3.5722562-6.1630194-10.1565302-9.9569786-17.28-9.957"/><path d="m55.272 80c3.5543393 6.1495105 10.1052799 9.9507159 17.208 9.985"/><path d="m89.907 60h-.008c-.044.076-.088.152-.124.228-3.4397751 6.1314153-3.3987466 13.6206401.108 19.714"/><path d="m89.907 79.976.012-.02c3.5603142-6.1760428 3.5557399-13.7822439-.012-19.954"/><path d="m89.903 79.972v.004"/><path d="m89.907 79.976c-.005181-.0115262-.0119097-.0222921-.02-.032-3.5736911-6.160569-10.1569302-9.9526275-17.279-9.953"/><path d="m72.6 69.991c3.5681739 6.1736653 10.1563621 9.9774894 17.287 9.981"/><path d="m37.969 70.015h-.008c3.5536775 6.1491556 10.1049068 9.9492265 17.207 9.981h.1c-.005181-.0115262-.0119097-.0222921-.02-.032-3.5736911-6.160569-10.1569302-9.9526275-17.279-9.953"/><path d="m55.288 79.984c7.0390618.0001782 13.5590479-3.7031162 17.164-9.749.044-.076.088-.148.132-.224l.012-.016h-.1c-7.1038749.0338892-13.6555697 3.8370552-17.208 9.989z"/><path d="m89.919 59.978h-.1c-7.1045063.0344596-13.6562111 3.8393754-17.207 9.9930008 7.0392869.0020274 13.5598242-3.7017958 17.163-9.7490008.044-.076.088-.148.132-.224l.012-.016"/><path d="m37.965 70.015c.0010365-.0060036.003819-.0115687.008-.016 3.5563188-6.1781813 3.551746-13.7831-.012-19.957-.044.076-.088.152-.124.227-3.4380851 6.1332742-3.3970635 13.622755.108 19.718z"/><path d="m55.188 60.006c-7.1043954.0348675-13.6559118 3.8396739-17.207 9.9930001 7.0389696.0008265 13.5589546-3.702683 17.163-9.7490001.044-.076.088-.148.132-.224l.012-.02"/><path d="m55.3 40.005h-.1c-7.1023578.0375606-13.650826 3.842906-17.2 9.995 7.0389167.0006264 13.5588097-3.7028309 17.163-9.749.044-.076.088-.148.132-.224l.012-.02"/><path d="m55.292 60c.0010365-.0060036.003819-.0115687.008-.016 3.5567302-6.1780714 3.5521573-13.7832103-.012-19.957-.044.076-.088.152-.124.228-3.4391083 6.1326544-3.3980832 13.622388.108 19.717"/><path d="m55.288 60c-.0051699-.0115321-.0118995-.0222995-.02-.032-3.5716549-6.1644354-10.1586085-9.9573743-17.283-9.952l-.008-.0000057c3.5529181 6.1503158 10.1042898 9.9516115 17.207 9.9840057h.1"/><path d="m72.616 49.99c-.0052341-.0114978-.0119585-.0222568-.02-.032-3.5740204-6.1607274-10.1576279-9.9527786-17.28-9.953"/><path d="m55.3 40.005c3.5688047 6.1735223 10.1571704 9.9772289 17.288 9.981"/><path d="m55.3 59.9860036c7.039864.0041908 13.5615536-3.6996911 17.164-9.7480036.044-.076.088-.148.132-.224l.012-.016h-.024c-7.1303456.0084939-13.7163328 3.8143745-17.284 9.9880036z"/><path d="m89.923 59.974c.0009775-.0060228.0037683-.0116043.008-.016 3.5602314-6.1771363 3.5556574-13.7841497-.012-19.957h-.008c-.044.076-.088.152-.124.228-3.4397095 6.132499-3.3986827 13.6225499.108 19.717l.02.032"/><path d="m72.58 89.993h-.1c-7.1047138.0336939-13.6569278 3.8383036-17.208 9.9920054 7.0403845.0051832 13.5626739-3.6994194 17.164-9.7490054.044-.076.088-.147.132-.223l.012-.016"/><path d="m72.6 89.9690051c7.0400809.0050314 13.5620015-3.6995776 17.163-9.7490051.044-.076.088-.148.132-.224l.012-.016h-.024c-7.1300838.0094678-13.7154647 3.8155993-17.283 9.9890051z"/></g></g><circle cx="60.75" cy="60.751" r="60" stroke-linecap="round" stroke-linejoin="round"/></g></svg>