<?xml version="1.0" encoding="UTF-8"?>
<svg width="477px" height="477px" viewBox="0 0 477 477" version="1.1" xmlns="http://www.w3.org/2000/svg" xmlns:xlink="http://www.w3.org/1999/xlink">
    <!-- Generator: Sketch 52.6 (67491) - http://www.bohemiancoding.com/sketch -->
    <title>discpl-logo-bg-02</title>
    <desc>Created with Sketch.</desc>
    <g id="import" stroke="none" stroke-width="1" fill="none" fill-rule="evenodd" opacity="0.474">
        <g id="discpl-logo-bg-02" transform="translate(2.000000, 2.000000)" stroke="#EAE7E7" stroke-width="5">
            <g id="Group" transform="translate(0.000000, 0.500000)">
                <path d="M440.754,275.256 L440.738,275.256 C440.502,275.665 440.282,276.074 440.046,276.483 C425.832357,300.084354 400.289887,314.510743 372.739,314.498008 L372.739,314.482 C386.767939,290.18478 412.682536,275.205762 440.739,275.177 L440.833,275.177 L440.833,275.193 L440.786,275.272 L440.77,275.256 L440.754,275.256 Z" id="Path" fill="#64DCFF"></path>
                <path d="M304.743,117.956 L304.743,117.941 L304.759,117.941 C332.772366,117.942352 358.666405,132.857599 372.723,157.089 C372.754837,157.127287 372.781407,157.169663 372.802,157.215 L372.802,157.231 L372.723,157.231 C344.676297,157.216535 318.763306,142.255256 304.728,117.973 L304.743,117.956 Z" id="Path" fill="#64DCFF"></path>
                <path d="M304.587,196.696 C304.414,196.996 304.241,197.296 304.099,197.596 C289.9304,221.386564 264.278068,235.955095 236.588,235.937017 C250.61585,211.637119 276.529781,196.653913 304.588,196.62 L304.651,196.62 L304.667,196.636 L304.619,196.699 L304.588,196.699 L304.587,196.696 Z" id="Path" fill="#64DCFF"></path>
                <path d="M168.64,39.3370006 C182.671165,15.0116172 208.616016,0.0217920982 236.698,0.016 L236.714,0.016 L236.714,0.032 L236.667,0.111 L236.651,0.095 L236.636,0.095 C236.462,0.395 236.29,0.695 236.148,0.995 C221.970481,24.7751081 196.325657,39.3404016 168.64,39.3370006 Z" id="Path" fill="#64DCFF"></path>
                <path d="M236.478,314.672 L236.478,314.656 L236.494,314.656 C264.512499,314.656715 290.410024,329.579407 304.461,353.82 C304.492886,353.858251 304.51946,353.900635 304.54,353.946 L304.524,353.946 L304.524,353.962 L304.146,353.962 C276.209015,353.826839 250.442411,338.875631 236.462,314.688 L236.478,314.672 Z" id="Path" fill="#64DCFF"></path>
                <path d="M236.415,393.341 L236.415,393.324 L236.431,393.324 C264.444833,393.32654 290.339217,408.241328 304.398,432.472 C304.429688,432.510201 304.455936,432.552603 304.476,432.598 L304.476,432.614 L304.083,432.614 C276.148419,432.48541 250.38107,417.53986 236.399,393.356 L236.415,393.341 Z" id="Path" fill="#64DCFF"></path>
                <path d="M168.514,196.65 C182.480958,172.446659 208.250147,157.480883 236.194,157.344 L236.587,157.344 L236.587,157.36 L236.54,157.439 L236.524,157.423 L236.509,157.423 C236.336,157.723 236.163,158.023 236.021,158.323 C221.844226,182.10426 196.199264,196.670772 168.513,196.668 L168.514,196.65 Z" id="Path" fill="#64DCFF"></path>
                <path d="M168.325,354.04 L168.247,353.914 C154.460545,329.94515 154.299488,300.491183 167.823,276.373 C167.996,276.073 168.169,275.791 168.342,275.492 C182.359239,299.771591 182.37715,329.680638 168.389,353.977 L168.342,354.056 L168.325,354.04 Z" id="Path" fill="#64DCFF"></path>
                <path d="M168.247,432.725 C140.162791,432.743147 114.206803,417.762013 100.174,393.434991 L100.19,393.435 C128.215426,393.421596 154.125555,408.339307 168.185,432.583 L168.263,432.709 L168.247,432.709 L168.247,432.725 Z" id="Path" fill="#64DCFF"></path>
                <path d="M32.143,196.916 L32.175,196.916 C46.2109819,221.19592 46.2288978,251.11929 32.222,275.416 L32.175,275.479 C18.1225015,251.179567 18.1103013,221.226873 32.143,196.916 Z" id="Path" fill="#64DCFF"></path>
                <path d="M100.422,78.78 C72.3407359,78.788474 46.3971288,93.77758 32.364,118.101005 C60.0530265,118.111238 85.7023167,103.542915 99.875,79.756 C100.048,79.456 100.221,79.173 100.394,78.875 L100.438,78.797 L100.438,78.781" id="Path" stroke-linecap="round" stroke-linejoin="round"></path>
                <path d="M168.562,39.4 C140.478497,39.3991475 114.53024,54.388754 100.501,78.717001 C128.187726,78.7214586 153.833933,64.1560271 168.012,40.375 C168.185,40.075 168.358,39.793 168.531,39.494 L168.578,39.415" id="Path" stroke-linecap="round" stroke-linejoin="round"></path>
                <path d="M236.698,0.016 C208.616016,0.0217920982 182.671165,15.0116172 168.64,39.337 C196.32611,39.3392093 221.970657,24.7723377 236.147,0.991 C236.32,0.691 236.493,0.408 236.666,0.11 L236.713,0.031 L236.729,0.015 L236.713,0.015" id="Path" stroke-linecap="round" stroke-linejoin="round"></path>
                <path d="M32.254,196.822 C32.2578554,196.798183 32.2690412,196.776161 32.286,196.759 C46.2911166,172.456004 46.2728209,142.528854 32.238,118.243 L32.207,118.243 C18.1758831,142.559915 18.1877011,172.516163 32.238,196.822" id="Path" stroke-linecap="round" stroke-linejoin="round"></path>
                <path d="M32.238,196.837 L32.238,196.821" id="Path" stroke-linecap="round" stroke-linejoin="round"></path>
                <path d="M304.807,39.29 C290.757062,14.9630384 264.791731,-0.01578718 236.699,-1.24670537e-05 L236.699,0.016 L236.715,0.016 L236.715,0.032 C250.749242,24.3177611 276.665793,39.2799958 304.715,39.29" id="Path" stroke-linecap="round" stroke-linejoin="round"></path>
                <path d="M32.175,275.475 L32.222,275.412 C46.2288978,251.11529 46.2109819,221.19192 32.175,196.912 L32.143,196.912 C18.111842,221.221856 18.1240421,251.172583 32.175,275.471 L32.175,275.487" id="Path" stroke-linecap="round" stroke-linejoin="round"></path>
                <path d="M372.865,78.563 C358.829745,54.2478505 332.882161,39.2743658 304.807,39.2889893" id="Path" stroke-linecap="round" stroke-linejoin="round"></path>
                <path d="M372.881,78.578 L372.881,78.562" id="Path" stroke-linecap="round" stroke-linejoin="round"></path>
                <path d="M304.775,39.289 L304.791,39.305 C318.819078,63.5965796 344.734839,78.5655564 372.786,78.579" id="Path" stroke-linecap="round" stroke-linejoin="round"></path>
                <path d="M32.128,354.149 C32.1319365,354.125416 32.1427164,354.103508 32.159,354.086 C46.1642197,329.783127 46.1463053,299.856088 32.112,275.57 L32.081,275.57 C18.0494703,299.886805 18.0612883,329.843274 32.112,354.149" id="Path" stroke-linecap="round" stroke-linejoin="round"></path>
                <path d="M32.112,354.164 L32.112,354.148" id="Path" stroke-linecap="round" stroke-linejoin="round"></path>
                <path d="M440.958,117.849 C426.906219,93.5390523 400.958926,78.5655614 372.88,78.563 L372.849,78.563 L372.849,78.579" id="Path" stroke-linecap="round" stroke-linejoin="round"></path>
                <path d="M372.865,78.579 L372.865,78.599 C386.904776,102.8787 412.818273,117.837648 440.865,117.853" id="Path" stroke-linecap="round" stroke-linejoin="round"></path>
                <path d="M100.189,393.42 C100.173,393.404 100.158,393.388 100.158,393.373 C86.1066466,369.094298 60.1796646,354.145981 32.128,354.15 L32.096,354.149999 L32.112,354.166 C46.1521598,378.477674 72.0993957,393.448552 100.174,393.436" id="Path" stroke-linecap="round" stroke-linejoin="round"></path>
                <path d="M440.894,117.928 L440.863,117.928 C440.69,118.228 440.517,118.528 440.375,118.828 C426.826926,142.999123 427.024171,172.522059 440.894,196.51" id="Path" stroke-linecap="round" stroke-linejoin="round"></path>
                <path d="M440.894,196.508 C454.943417,172.204676 454.943417,142.248324 440.894,117.945" id="Path" stroke-linecap="round" stroke-linejoin="round"></path>
                <path d="M168.184,432.583 C154.124555,408.339307 128.214426,393.421596 100.189,393.435 L100.173,393.434991 C114.205803,417.762013 140.161791,432.743147 168.246,432.725016" id="Path" stroke-linecap="round" stroke-linejoin="round"></path>
                <path d="M168.279,432.725 L168.263,432.709" id="Path" stroke-linecap="round" stroke-linejoin="round"></path>
                <path d="M440.832,275.161 C454.878426,250.865195 454.884526,220.918526 440.848,196.617 L440.832,196.601 L440.801,196.601 C440.565,197.01 440.345,197.419 440.109,197.824 C426.752654,221.941102 427.027478,251.29718 440.833,275.16" id="Path" stroke-linecap="round" stroke-linejoin="round"></path>
                <path d="M236.258,471.857 C222.203236,447.624252 196.308613,432.708449 168.295,432.709 L168.248,432.709 L168.248,432.725 L168.264,432.725 C182.304681,457.042533 208.258063,472.015844 236.338,471.999014" id="Path" stroke-linecap="round" stroke-linejoin="round"></path>
                <path d="M236.352,471.999 L236.336,471.983" id="Path" stroke-linecap="round" stroke-linejoin="round"></path>
                <path d="M304.083,432.615 C276.138049,432.751687 250.367575,447.717325 236.399,471.921 L236.399,471.937001 C264.484511,471.940471 290.437176,456.956035 304.476,432.631 L304.492,432.615" id="Path" stroke-linecap="round" stroke-linejoin="round"></path>
                <path d="M372.219,393.231 C344.275298,393.367472 318.506062,408.332895 304.539,432.536 L304.539,432.552003 C332.624203,432.559203 358.577263,417.574039 372.612,393.247 L372.628,393.231" id="Path" stroke-linecap="round" stroke-linejoin="round"></path>
                <path d="M440.766,353.835 C454.812102,329.532319 454.818202,299.5804 440.782,275.272 L440.766,275.256 L440.735,275.256 C440.499,275.665 440.279,276.074 440.043,276.483 C426.686079,300.605535 426.960511,329.966349 440.766,353.835" id="Path" stroke-linecap="round" stroke-linejoin="round"></path>
                <path d="M440.754,353.85 C412.669922,353.846998 386.718039,368.828475 372.676,393.15 L372.676,393.166 C400.763834,393.16838 426.719903,378.187787 440.769,353.866 L440.769,353.85" id="Path" stroke-linecap="round" stroke-linejoin="round"></path>
                <path d="M100.394,157.439 C100.398315,157.416111 100.407902,157.394541 100.422,157.376 C114.425088,133.080092 114.414417,103.161912 100.394,78.876 L100.378,78.86 L100.362,78.86 C100.189,79.16 100.016,79.46 99.874,79.76 C92.955,92.811 89.824,105.436 89.824,118.216 C89.8292306,131.973158 93.458325,145.486206 100.346,157.395 L100.377,157.443" id="Path" stroke-linecap="round" stroke-linejoin="round"></path>
                <path d="M100.362,157.438 L100.346,157.39 C86.3022393,133.125634 60.3974496,118.178482 32.362,118.163 L32.284,118.163 L32.299,118.195 C46.328416,142.485588 72.2480254,157.449589 100.299,157.453" id="Path" stroke-linecap="round" stroke-linejoin="round"></path>
                <path d="M100.376,157.454 L100.376,157.438" id="Path" stroke-linecap="round" stroke-linejoin="round"></path>
                <path d="M100.363,157.453 L100.3,157.453 C72.2363052,157.470435 46.3141582,172.459917 32.3,196.774 C59.986691,196.774416 85.63161,182.208197 99.811,158.428 C99.984,158.128 100.157,157.846 100.33,157.547 L100.377,157.468" id="Path" stroke-linecap="round" stroke-linejoin="round"></path>
                <path d="M168.543,118.054 C168.546919,118.030204 168.558095,118.0082 168.575,117.991 C182.563978,93.689503 182.546068,63.7757284 168.528,39.491 L168.512,39.475 L168.497,39.475 C168.323,39.775 168.151,40.075 168.009,40.375 C154.485256,64.4974856 154.646688,93.9551824 168.434,117.928" id="Path" stroke-linecap="round" stroke-linejoin="round"></path>
                <path d="M168.514,118.055 L168.514,118.071" id="Path" stroke-linecap="round" stroke-linejoin="round"></path>
                <path d="M168.518,118.049 C168.498029,118.003554 168.471772,117.96114 168.44,117.923 C154.397132,93.6915166 128.510552,78.7744207 100.504,78.775 L100.426,78.775 L100.442,78.791 C114.466445,103.088652 140.387394,118.059525 168.442,118.065" id="Path" stroke-linecap="round" stroke-linejoin="round"></path>
                <path d="M168.53,118.071 L168.53,118.055" id="Path" stroke-linecap="round" stroke-linejoin="round"></path>
                <path d="M236.682,78.668 C236.68704,78.6457655 236.698112,78.625351 236.714,78.609 C250.705652,54.308217 250.687741,24.3930112 236.667,0.109 L236.651,0.093 L236.636,0.093 C236.462,0.393 236.29,0.693 236.148,0.993 C222.620137,25.1158437 222.781578,54.5768616 236.573,78.55" id="Path" stroke-linecap="round" stroke-linejoin="round"></path>
                <path d="M236.652,78.672 L236.652,78.688" id="Path" stroke-linecap="round" stroke-linejoin="round"></path>
                <path d="M236.651,78.669 C236.63009,78.6252948 236.603894,78.5843217 236.573,78.547 C222.53265,54.3128549 196.648591,39.3902372 168.641,39.383 L168.562,39.383 L168.562,39.399 L168.578,39.414 C182.553923,63.6036355 208.321497,78.5547679 236.258,78.684" id="Path" stroke-linecap="round" stroke-linejoin="round"></path>
                <path d="M100.315,236.092 C100.299,236.076 100.284,236.06 100.284,236.045 C86.232496,211.766449 60.3056095,196.818187 32.254,196.822 L32.222,196.821999 L32.238,196.838 L32.254,196.869 C46.2879152,221.144304 72.1970096,236.098733 100.237,236.108" id="Path" stroke-linecap="round" stroke-linejoin="round"></path>
                <path d="M100.3,236.108 L100.237,236.108 C72.176905,236.138829 46.2609707,251.124718 32.237,275.429015 C59.9280814,275.446046 85.5806448,260.875485 99.748,237.083 C99.921,236.783 100.094,236.501 100.267,236.202 L100.314,236.124 L100.314,236.108" id="Path" stroke-linecap="round" stroke-linejoin="round"></path>
                <path d="M100.173,314.781 C72.1090988,314.798641 46.1869039,329.788532 32.173,354.103 C59.859691,354.103416 85.50461,339.537197 99.684,315.757 C99.857,315.457 100.03,315.174 100.203,314.876 L100.25,314.797" id="Path" stroke-linecap="round" stroke-linejoin="round"></path>
                <path d="M100.186,393.436 L100.186,393.42 L100.233,393.357 C114.233722,369.066863 114.221526,339.154712 100.201,314.876 L100.185,314.86 L100.169,314.86 C99.996,315.16 99.823,315.46 99.681,315.76 C86.1364197,339.90367 86.3157826,369.397846 100.153,393.375 L100.184,393.422" id="Path" stroke-linecap="round" stroke-linejoin="round"></path>
                <path d="M168.247,354.055 C140.189864,354.089051 114.277346,369.072923 100.252,393.373006 C127.940332,393.383622 153.588746,378.814554 167.759,355.027 C167.932,354.727 168.105,354.444 168.278,354.15 L168.325,354.072 L168.341,354.056" id="Path" stroke-linecap="round" stroke-linejoin="round"></path>
                <path d="M168.263,432.71 L168.263,432.726 L168.279,432.726 L168.295,432.71 C168.298821,432.686379 168.309617,432.66444 168.326,432.647 C182.315389,408.345613 182.297479,378.431618 168.279,354.147 L168.263,354.131 L168.247,354.131 C168.074,354.431 167.901,354.725 167.76,355.024 C154.230224,379.146254 154.391291,408.608117 168.184,432.581 L168.263,432.71 Z" id="Path" stroke-linecap="round" stroke-linejoin="round"></path>
                <path d="M236.006,393.341 C208.062298,393.477472 182.293062,408.442895 168.326,432.646 L168.326,432.662001 C196.012635,432.666173 221.65824,418.099296 235.834,394.317 C236.007,394.017 236.18,393.734 236.353,393.436 L236.4,393.357 L236.416,393.341" id="Path" stroke-linecap="round" stroke-linejoin="round"></path>
                <path d="M236.336,471.995 L236.352,471.995 L236.399,471.916 C250.398682,447.622718 250.380768,417.707497 236.352,393.431 L236.336,393.415 L236.32,393.415 C236.147,393.715 235.974,394.015 235.833,394.315 C222.305481,418.432147 222.466549,447.888229 236.257,471.856 L236.336,471.982" id="Path" stroke-linecap="round" stroke-linejoin="round"></path>
                <path d="M304.492,354.024 L304.461,354.024 C304.288,354.324 304.115,354.618 303.973,354.917 C290.44193,379.039015 290.603381,408.501725 304.398,432.474" id="Path" stroke-linecap="round" stroke-linejoin="round"></path>
                <path d="M304.492,432.614 L304.539,432.536 C318.544042,408.238794 318.526126,378.316419 304.492,354.036" id="Path" stroke-linecap="round" stroke-linejoin="round"></path>
                <path d="M304.475,432.599 L304.475,432.615" id="Path" stroke-linecap="round" stroke-linejoin="round"></path>
                <path d="M236.399,393.341 L236.399,393.357 C250.38107,417.54086 276.148419,432.48641 304.083,432.615 L304.492,432.615 L304.476,432.599 C304.455936,432.553603 304.429688,432.511201 304.398,432.473 C290.339291,408.241634 264.444396,393.326391 236.43,393.324" id="Path" stroke-linecap="round" stroke-linejoin="round"></path>
                <polyline id="Path" stroke-linecap="round" stroke-linejoin="round" points="236.4 393.325 236.384 393.325 236.384 393.34"></polyline>
                <path d="M372.629,314.644 L372.598,314.644 C372.424,314.944 372.252,315.244 372.11,315.544 C358.58245,339.665502 358.743893,369.125207 372.535,393.097" id="Path" stroke-linecap="round" stroke-linejoin="round"></path>
                <path d="M372.628,393.23 L372.675,393.152 C386.681692,368.855235 386.663776,338.931976 372.628,314.652" id="Path" stroke-linecap="round" stroke-linejoin="round"></path>
                <path d="M372.614,393.216 L372.614,393.232" id="Path" stroke-linecap="round" stroke-linejoin="round"></path>
                <path d="M304.54,353.956 C318.512334,378.149218 344.282168,393.101662 372.22,393.226 L372.629,393.226 L372.613,393.21 C372.593124,393.164504 372.56686,393.122077 372.535,393.084 C358.476326,368.847387 332.573916,353.932354 304.555,353.94" id="Path" stroke-linecap="round" stroke-linejoin="round"></path>
                <polyline id="Path" stroke-linecap="round" stroke-linejoin="round" points="304.538 353.944 304.523 353.944 304.523 353.955"></polyline>
                <path d="M372.66,314.560984 L372.675,314.577 C386.720173,338.891992 412.673015,353.864112 440.753,353.851 L440.768,353.851009 L440.768,353.835 C426.726632,329.516689 400.771953,314.54329 372.691,314.561" id="Path" stroke-linecap="round" stroke-linejoin="round"></path>
                <path d="M236.714,78.6110132 C264.404817,78.6270433 290.056919,64.0567436 304.225,40.265 C304.398,39.965 304.571,39.682 304.744,39.384 L304.792,39.305 L304.807,39.289 L304.713,39.289 C276.653831,39.3232729 250.739648,54.3087505 236.714,78.6110132 Z" id="Path" stroke-linecap="round" stroke-linejoin="round"></path>
                <path d="M304.76,117.944 C304.763855,117.920183 304.775041,117.898161 304.792,117.881 C318.788284,93.5813579 318.76999,63.6635075 304.744,39.381 L304.729,39.365 L304.713,39.365 C304.54,39.665 304.367,39.965 304.225,40.265 C290.694043,64.3856221 290.855495,93.8471248 304.65,117.818" id="Path" stroke-linecap="round" stroke-linejoin="round"></path>
                <path d="M304.727,117.945 L304.727,117.961" id="Path" stroke-linecap="round" stroke-linejoin="round"></path>
                <path d="M372.817,78.658 L372.864,78.595 L372.879,78.579 L372.785,78.579 C344.729141,78.6002799 318.813284,93.5792224 304.79,117.879 L304.79,117.894003 C332.477389,117.902026 358.124467,103.334097 372.297,79.549 C372.47,79.249 372.643,78.966 372.816,78.668" id="Path" stroke-linecap="round" stroke-linejoin="round"></path>
                <path d="M372.817,157.234 L372.864,157.155 C386.869456,132.863262 386.85154,102.944947 372.817,78.67 L372.817,78.658 L372.786,78.658 C372.612,78.953 372.44,79.252 372.298,79.551 C358.770389,103.66822 358.931838,133.124514 372.723,157.092" id="Path" stroke-linecap="round" stroke-linejoin="round"></path>
                <path d="M372.802,157.218 L372.802,157.234" id="Path" stroke-linecap="round" stroke-linejoin="round"></path>
                <path d="M372.865,157.155 L372.865,157.17101 C400.555182,157.184637 426.206177,142.614965 440.376,118.825 C440.549,118.525 440.722,118.242 440.895,117.944 L440.895,117.928 L440.942,117.865 L440.958,117.849 L440.863,117.849 C412.806989,117.878476 386.893176,132.857862 372.865,157.155 Z" id="Path" stroke-linecap="round" stroke-linejoin="round"></path>
                <path d="M440.894,196.523 L440.894,196.508 C426.852935,172.189387 400.898064,157.215877 372.817,157.233984" id="Path" stroke-linecap="round" stroke-linejoin="round"></path>
                <path d="M372.786,157.234 L372.802,157.249 C386.831425,181.541673 412.749218,196.510723 440.802,196.523" id="Path" stroke-linecap="round" stroke-linejoin="round"></path>
                <path d="M372.802,235.825 L372.802,235.841003 C400.351124,235.848038 425.890681,221.423079 440.108,197.826 C440.375,197.437 440.608,197.026 440.847,196.618 L440.894,196.539 L440.894,196.523 L440.8,196.523 C412.74332,196.546093 386.827122,211.525334 372.802,235.825 Z" id="Path" stroke-linecap="round" stroke-linejoin="round"></path>
                <path d="M440.832,275.177 L440.832,275.161 C426.780787,250.859864 400.841013,235.891766 372.77,235.887" id="Path" stroke-linecap="round" stroke-linejoin="round"></path>
                <path d="M372.739,235.903 L372.739,235.919 C386.776556,260.201445 412.691007,275.162467 440.739,275.177" id="Path" stroke-linecap="round" stroke-linejoin="round"></path>
                <polyline id="Path" stroke-linecap="round" stroke-linejoin="round" points="372.74 235.889 372.724 235.889 372.724 235.905"></polyline>
                <path d="M372.739,314.482 L372.739,314.498008 C400.289887,314.510743 425.832357,300.084354 440.046,276.483 C440.313,276.089 440.546,275.683 440.786,275.272 L440.833,275.193 L440.833,275.177 L440.739,275.177 C412.682536,275.205762 386.767939,290.18478 372.739,314.482 Z" id="Path" stroke-linecap="round" stroke-linejoin="round"></path>
                <path d="M168.499,118.07 L168.436,118.07 C140.373025,118.090116 114.452123,133.078878 100.436,157.391001 C128.123184,157.396173 153.770174,142.831108 167.949,119.05 C168.122,118.75 168.295,118.468 168.468,118.169 L168.515,118.091" id="Path" stroke-linecap="round" stroke-linejoin="round"></path>
                <path d="M168.53,118.071 L168.514,118.071" id="Path" stroke-linecap="round" stroke-linejoin="round"></path>
                <path d="M236.635,78.685 L236.257,78.685 C208.312632,78.8190242 182.542266,93.7851035 168.577,117.990016 C196.267132,118.007441 221.918681,103.436592 236.084,79.644 C236.257,79.344 236.43,79.062 236.603,78.763 L236.65,78.7" id="Path" stroke-linecap="round" stroke-linejoin="round"></path>
                <polyline id="Path" stroke-linecap="round" stroke-linejoin="round" points="236.668 78.668 236.668 78.683 236.652 78.683"></polyline>
                <path d="M100.315,236.108 L100.315,236.092 L100.362,236.029 C114.362104,211.738697 114.349908,181.826878 100.33,157.548 L100.314,157.532 L100.298,157.532 C100.125,157.832 99.952,158.132 99.81,158.432 C86.2436908,182.570413 86.423123,212.076365 100.282,236.048 L100.313,236.095" id="Path" stroke-linecap="round" stroke-linejoin="round"></path>
                <path d="M304.728,117.944 C304.707323,117.898708 304.680761,117.856343 304.649,117.818 C290.591127,93.5860228 264.696505,78.6699556 236.682,78.667 L236.666,78.667" id="Path" stroke-linecap="round" stroke-linejoin="round"></path>
                <path d="M304.743,117.961 L304.743,117.945" id="Path" stroke-linecap="round" stroke-linejoin="round"></path>
                <path d="M236.635,78.685 L236.65,78.685 L236.65,78.701 C250.629231,102.887695 276.398368,117.834282 304.334,117.959" id="Path" stroke-linecap="round" stroke-linejoin="round"></path>
                <path d="M100.268,314.765 C100.272275,314.741322 100.283401,314.719418 100.3,314.702 C114.300409,290.404993 114.288214,260.487584 100.268,236.202 L100.252,236.187 L100.236,236.187 C100.063,236.487 99.89,236.787 99.748,237.087 C86.181726,261.232179 86.3611472,290.743559 100.22,314.722 L100.251,314.769" id="Path" stroke-linecap="round" stroke-linejoin="round"></path>
                <path d="M372.818,157.234 L372.802,157.218 C372.781676,157.172741 372.755448,157.130373 372.724,157.092 C358.667405,132.860599 332.773366,117.945352 304.76,117.944 L304.713,117.944 L304.713,117.956" id="Path" stroke-linecap="round" stroke-linejoin="round"></path>
                <path d="M304.728,117.959 L304.728,117.975 C318.763457,142.257105 344.676352,157.21833 372.723,157.233" id="Path" stroke-linecap="round" stroke-linejoin="round"></path>
                <path d="M168.247,353.913 C154.19012,329.674554 128.287602,314.757716 100.268,314.765 L100.252,314.764997" id="Path" stroke-linecap="round" stroke-linejoin="round"></path>
                <path d="M168.342,354.055 L168.326,354.039" id="Path" stroke-linecap="round" stroke-linejoin="round"></path>
                <path d="M100.252,314.781 L100.252,314.797 C114.279919,339.086645 140.197591,354.050627 168.247,354.055 L168.31,354.055" id="Path" stroke-linecap="round" stroke-linejoin="round"></path>
                <path d="M100.235,314.765 L100.235,314.781" id="Path" stroke-linecap="round" stroke-linejoin="round"></path>
                <path d="M168.326,354.055 L168.31,354.055 L168.326,354.071 C182.295789,378.266757 208.067227,393.220131 236.006,393.341 L236.4,393.341" id="Path" stroke-linecap="round" stroke-linejoin="round"></path>
                <path d="M236.32,393.199 C222.271127,368.953046 196.363075,354.034545 168.341,354.054979" id="Path" stroke-linecap="round" stroke-linejoin="round"></path>
                <path d="M236.416,393.327 L236.4,393.327" id="Path" stroke-linecap="round" stroke-linejoin="round"></path>
                <path d="M168.468,196.727 L168.515,196.649 C182.502944,172.352583 182.485033,142.443646 168.468,118.164 L168.452,118.149 L168.437,118.149 C168.263,118.449 168.091,118.749 167.949,119.049 C154.425218,143.167564 154.586655,172.622125 168.374,196.591" id="Path" stroke-linecap="round" stroke-linejoin="round"></path>
                <path d="M168.451,196.711 L168.451,196.727" id="Path" stroke-linecap="round" stroke-linejoin="round"></path>
                <path d="M168.467,196.727 L168.451,196.711 C168.431017,196.665561 168.404762,196.623148 168.373,196.585 C154.31534,172.346848 128.412739,157.430181 100.393,157.437 L100.362,157.436998 L100.362,157.452 L100.378,157.452 L100.378,157.468 C114.405756,181.760249 140.326418,196.724856 168.378,196.726" id="Path" stroke-linecap="round" stroke-linejoin="round"></path>
                <path d="M168.436,196.727 L168.373,196.727 C140.313966,196.758856 114.398939,211.743078 100.373,236.045006 C128.061279,236.055422 153.709601,221.486406 167.88,197.699 C168.053,197.399 168.226,197.121 168.399,196.822 L168.446,196.744 L168.462,196.728" id="Path" stroke-linecap="round" stroke-linejoin="round"></path>
                <path d="M236.619,157.325 C236.623048,157.301452 236.633813,157.279575 236.65,157.262 C250.641652,132.961217 250.623741,103.046011 236.603,78.762 L236.587,78.746 L236.572,78.746 C236.399,79.046 236.226,79.346 236.084,79.646 C222.556537,103.768947 222.717978,133.229754 236.509,157.203" id="Path" stroke-linecap="round" stroke-linejoin="round"></path>
                <path d="M236.589,157.328 L236.589,157.344" id="Path" stroke-linecap="round" stroke-linejoin="round"></path>
                <path d="M236.586,157.328 C236.566041,157.282548 236.539783,157.240132 236.508,157.202 C222.451255,132.970749 196.557311,118.055557 168.544,118.054 L168.497,118.054 L168.497,118.07 L168.512,118.07 L168.512,118.086 C182.489764,142.272211 208.257522,157.218881 236.192,157.344" id="Path" stroke-linecap="round" stroke-linejoin="round"></path>
                <path d="M236.605,157.344 L236.605,157.328" id="Path" stroke-linecap="round" stroke-linejoin="round"></path>
                <path d="M304.681,118.038 L304.729,117.975 L304.744,117.959 L304.335,117.959 C276.389952,118.095329 250.619157,133.060552 236.65,157.264 L236.65,157.280001 C264.33759,157.283819 289.984072,142.716711 304.161,118.934 C304.334,118.634 304.507,118.352 304.68,118.053" id="Path" stroke-linecap="round" stroke-linejoin="round"></path>
                <path d="M168.31,275.256 C154.260636,251.002197 128.344108,236.080802 100.315,236.108 L100.299,236.107963 L100.315,236.124 C114.337042,260.421615 140.256627,275.392801 168.31,275.398" id="Path" stroke-linecap="round" stroke-linejoin="round"></path>
                <path d="M168.374,275.397 L168.311,275.397 C140.249147,275.416428 114.329416,290.405614 100.316,314.718 C128.002361,314.720161 153.647185,300.153348 167.824,276.372 C167.997,276.072 168.17,275.79 168.343,275.491 L168.39,275.413" id="Path" stroke-linecap="round" stroke-linejoin="round"></path>
                <path d="M304.681,196.618 L304.729,196.539 C318.724458,172.244494 318.706163,142.331369 304.681,118.054 L304.681,118.038 L304.65,118.038 C304.477,118.338 304.304,118.638 304.162,118.938 C290.63098,143.054339 290.792439,172.512432 304.587,196.479" id="Path" stroke-linecap="round" stroke-linejoin="round"></path>
                <path d="M304.664,196.601 L304.664,196.617" id="Path" stroke-linecap="round" stroke-linejoin="round"></path>
                <path d="M372.754,157.312 L372.801,157.249 L372.817,157.234 L372.723,157.234 C344.669705,157.269686 318.759809,172.247088 304.728,196.539 L304.728,196.555008 C332.416861,196.567627 358.066197,181.998035 372.235,158.209 C372.408,157.909 372.581,157.627 372.754,157.328" id="Path" stroke-linecap="round" stroke-linejoin="round"></path>
                <path d="M168.325,354.037 L168.325,354.053 L168.341,354.053 L168.388,353.975 C182.37615,329.678638 182.358239,299.769591 168.341,275.49 L168.325,275.474 L168.309,275.474 C168.136,275.774 167.963,276.074 167.822,276.374 C154.298488,300.492183 154.459545,329.94615 168.246,353.915 L168.325,354.037 Z" id="Path" stroke-linecap="round" stroke-linejoin="round"></path>
                <path d="M236.493,314.655 C236.496993,314.631434 236.507765,314.609542 236.524,314.592 C250.51606,290.296682 250.498148,260.385542 236.477,236.107 L236.461,236.091 L236.446,236.091 C236.273,236.391 236.1,236.691 235.958,236.991 C222.43028,261.108096 222.591349,290.564283 236.382,314.532" id="Path" stroke-linecap="round" stroke-linejoin="round"></path>
                <path d="M236.463,314.655 L236.463,314.671" id="Path" stroke-linecap="round" stroke-linejoin="round"></path>
                <path d="M236.068,314.667 C208.126127,314.810198 182.359997,329.773817 168.388,353.972 L168.388,353.988 C196.074467,353.990562 221.719475,339.423644 235.896,315.642 C236.069,315.342 236.242,315.06 236.415,314.761 L236.462,314.683 L236.478,314.667" id="Path" stroke-linecap="round" stroke-linejoin="round"></path>
                <path d="M304.618,196.696 L304.587,196.696 C304.414,196.996 304.241,197.296 304.099,197.596 C290.568221,221.716313 290.729674,251.177434 304.524,275.148" id="Path" stroke-linecap="round" stroke-linejoin="round"></path>
                <path d="M304.634,275.272 C304.638042,275.248244 304.649201,275.226276 304.666,275.209 C318.662695,250.909468 318.644402,220.991397 304.618,196.709" id="Path" stroke-linecap="round" stroke-linejoin="round"></path>
                <path d="M304.601,275.272 L304.601,275.288" id="Path" stroke-linecap="round" stroke-linejoin="round"></path>
                <path d="M304.603,275.271 C304.582771,275.225691 304.556535,275.18331 304.525,275.145 C290.466544,250.913249 264.571602,235.997598 236.557,235.995" id="Path" stroke-linecap="round" stroke-linejoin="round"></path>
                <path d="M304.617,275.288 L304.617,275.272" id="Path" stroke-linecap="round" stroke-linejoin="round"></path>
                <path d="M236.525,236.013 L236.525,236.029 C250.50707,260.21286 276.274419,275.15841 304.209,275.287" id="Path" stroke-linecap="round" stroke-linejoin="round"></path>
                <polyline id="Path" stroke-linecap="round" stroke-linejoin="round" points="236.526 235.997 236.507 235.997 236.507 236.012"></polyline>
                <path d="M372.661,235.761 C358.602176,211.524537 332.699861,196.609559 304.681,196.616997" id="Path" stroke-linecap="round" stroke-linejoin="round"></path>
                <path d="M304.65,196.617 L304.666,196.633 C318.638334,220.826218 344.408168,235.778662 372.346,235.903" id="Path" stroke-linecap="round" stroke-linejoin="round"></path>
                <path d="M236.415,393.326 L236.431,393.326 C236.435155,393.302487 236.445906,393.280638 236.462,393.263 C250.463125,368.964747 250.445211,339.04447 236.415,314.763 L236.399,314.748 L236.383,314.748 C236.21,315.048 236.037,315.348 235.896,315.648 C222.368542,339.76943 222.529604,369.228923 236.32,393.201 L236.399,393.327 L236.399,393.343 L236.415,393.343" id="Path" stroke-linecap="round" stroke-linejoin="round"></path>
                <path d="M304.555,275.366 L304.524,275.366 C304.351,275.666 304.178,275.966 304.036,276.266 C290.50493,300.388015 290.666381,329.850725 304.461,353.823" id="Path" stroke-linecap="round" stroke-linejoin="round"></path>
                <path d="M304.552,353.945 L304.599,353.867 C318.594767,329.572673 318.576854,299.659548 304.552,275.382" id="Path" stroke-linecap="round" stroke-linejoin="round"></path>
                <path d="M304.555,353.945 L304.539,353.945 C304.518739,353.899708 304.492506,353.857331 304.461,353.819 C290.410024,329.578407 264.512499,314.655715 236.494,314.655 L236.483,314.655" id="Path" stroke-linecap="round" stroke-linejoin="round"></path>
                <path d="M236.462,314.667 L236.462,314.683 C250.442411,338.870631 276.209015,353.821839 304.146,353.957" id="Path" stroke-linecap="round" stroke-linejoin="round"></path>
                <polyline id="Path" stroke-linecap="round" stroke-linejoin="round" points="236.46 314.655 236.444 314.655 236.444 314.671"></polyline>
                <path d="M372.696,235.984 L372.665,235.984 C372.491,236.284 372.319,236.584 372.177,236.884 C358.649389,261.00122 358.810838,290.457514 372.602,314.425" id="Path" stroke-linecap="round" stroke-linejoin="round"></path>
                <path d="M372.691,314.56 L372.738,314.482 C386.743456,290.190262 386.72554,260.271947 372.691,235.997" id="Path" stroke-linecap="round" stroke-linejoin="round"></path>
                <path d="M372.677,314.545 L372.677,314.561" id="Path" stroke-linecap="round" stroke-linejoin="round"></path>
                <path d="M372.692,314.56 L372.676,314.545 C372.655936,314.499603 372.629688,314.457201 372.598,314.419 C358.541302,290.187833 332.647215,275.272939 304.634,275.272 L304.618,275.272" id="Path" stroke-linecap="round" stroke-linejoin="round"></path>
                <path d="M304.602,275.287 L304.602,275.303 C318.638351,299.586651 344.553566,314.548114 372.602,314.561" id="Path" stroke-linecap="round" stroke-linejoin="round"></path>
                <path d="M168.405,275.381 L168.374,275.381 L168.374,275.397 L168.389,275.397 L168.389,275.413 C182.366764,299.599211 208.134522,314.545881 236.069,314.671 L236.478,314.671 L236.478,314.655 L236.462,314.655 C236.441827,314.609438 236.415223,314.567006 236.383,314.529 C222.326735,290.297757 196.433063,275.382503 168.42,275.381" id="Path" stroke-linecap="round" stroke-linejoin="round"></path>
                <path d="M236.525,314.596 L236.525,314.612 C264.212114,314.614017 289.857768,300.04738 304.036,276.266 C304.209,275.966 304.382,275.683 304.555,275.385 L304.555,275.369 L304.602,275.306 L304.618,275.29 L304.209,275.29 C276.264104,275.426891 250.493724,290.392474 236.525,314.596 Z" id="Path" stroke-linecap="round" stroke-linejoin="round"></path>
                <path d="M372.734,235.903 L372.341,235.903 C344.397242,236.039268 318.627912,251.004745 304.661,275.208 L304.661,275.224003 C332.348591,275.231817 357.995715,260.663481 372.168,236.878 C372.341,236.578 372.514,236.296 372.687,235.997 L372.687,235.982 L372.734,235.919 L372.75,235.903" id="Path" stroke-linecap="round" stroke-linejoin="round"></path>
                <path d="M168.388,275.382 L168.388,275.398 L168.404,275.398 L168.404,275.382 L168.42,275.382 C168.423937,275.358416 168.434716,275.336508 168.451,275.319 C182.440389,251.017613 182.422479,221.103618 168.404,196.819 L168.388,196.803 L168.373,196.803 C168.199,197.103 168.027,197.403 167.885,197.696 C154.361434,221.819858 154.522483,251.278445 168.309,275.253 L168.388,275.382 Z" id="Path" stroke-linecap="round" stroke-linejoin="round"></path>
                <path d="M236.131,236.013 C208.187203,236.150086 182.418108,251.115808 168.451,275.319 L168.451,275.335001 C196.137481,275.338611 221.782671,260.771373 235.958,236.989 C236.131,236.689 236.304,236.406 236.477,236.108 L236.524,236.029" id="Path" stroke-linecap="round" stroke-linejoin="round"></path>
                <path d="M236.572,157.343 L236.194,157.343 C208.250147,157.479883 182.480958,172.445659 168.514,196.649 L168.514,196.664 C196.200264,196.666772 221.845226,182.10026 236.022,158.319 C236.195,158.019 236.368,157.737 236.541,157.438 L236.588,157.359 L236.604,157.343 L236.588,157.343" id="Path" stroke-linecap="round" stroke-linejoin="round"></path>
                <path d="M236.541,235.997 L236.557,235.997 C236.561155,235.973487 236.571906,235.951638 236.588,235.934 C250.581299,211.633657 250.563387,181.71757 236.541,157.434 L236.525,157.418 L236.51,157.418 C236.337,157.718 236.164,158.018 236.022,158.318 C222.494629,182.439193 222.656072,211.898517 236.447,235.87" id="Path" stroke-linecap="round" stroke-linejoin="round"></path>
                <path d="M236.525,235.997 C236.504814,235.951668 236.478575,235.909282 236.447,235.871 C222.398127,211.625046 196.490075,196.706545 168.468,196.727 L168.437,196.726979 L168.452,196.743 C182.426577,220.933979 208.194999,235.885603 236.132,236.013 L236.525,236.013" id="Path" stroke-linecap="round" stroke-linejoin="round"></path>
                <path d="M304.677,196.618 L304.662,196.602 C304.641192,196.556779 304.61464,196.514429 304.583,196.476 C290.526388,172.244974 264.63305,157.329531 236.62,157.327 L236.604,157.327" id="Path" stroke-linecap="round" stroke-linejoin="round"></path>
                <path d="M236.572,157.343 L236.587,157.343 L236.587,157.359 C250.624405,181.641596 276.538952,196.602673 304.587,196.617" id="Path" stroke-linecap="round" stroke-linejoin="round"></path>
                <path d="M236.588,235.934017 C264.278068,235.952095 289.9304,221.383564 304.099,197.593 C304.272,197.293 304.445,197.011 304.618,196.712 L304.618,196.696 L304.666,196.633 L304.681,196.617 L304.587,196.617 C276.529138,196.651269 250.615671,211.634428 236.588,235.934017 Z" id="Path" stroke-linecap="round" stroke-linejoin="round"></path>
                <path d="M372.754,235.888 L372.77,235.888 C372.774161,235.864284 372.785303,235.842348 372.802,235.825 C386.808485,211.528179 386.790569,181.605031 372.755,157.325 L372.755,157.315 L372.724,157.315 C372.55,157.615 372.378,157.915 372.236,158.215 C358.70825,182.336451 358.869693,211.796261 372.661,235.768 L372.739,235.894" id="Path" stroke-linecap="round" stroke-linejoin="round"></path>
                <path d="M304.54,353.956 L304.147,353.956 C276.202563,354.088795 250.431149,369.052694 236.463,393.256024 C264.155299,393.277663 289.809986,378.705895 303.974,354.91 C304.147,354.61 304.32,354.332 304.493,354.033 L304.493,354.017 L304.54,353.954 L304.556,353.954 L304.556,353.938" id="Path" stroke-linecap="round" stroke-linejoin="round"></path>
                <path d="M304.602,353.867 L304.602,353.883019 C332.292912,353.9024 357.945661,339.331085 372.11,315.537 C372.283,315.237 372.456,314.955 372.629,314.656 L372.629,314.64 L372.676,314.577 L372.692,314.561 L372.598,314.561 C344.544252,314.596947 318.634035,329.574695 304.602,353.867 Z" id="Path" stroke-linecap="round" stroke-linejoin="round"></path>
                <circle id="Oval" stroke-linecap="round" stroke-linejoin="round" cx="236.497" cy="236.002" r="235.997"></circle>
            </g>
        </g>
    </g>
</svg>