<?xml version="1.0" encoding="UTF-8"?>
<svg width="477px" height="477px" viewBox="0 0 477 477" version="1.1" xmlns="http://www.w3.org/2000/svg" xmlns:xlink="http://www.w3.org/1999/xlink">
    <!-- Generator: Sketch 52.6 (67491) - http://www.bohemiancoding.com/sketch -->
    <title>discpl-logo-bg-01</title>
    <desc>Created with Sketch.</desc>
    <g id="import" stroke="none" stroke-width="1" fill="none" fill-rule="evenodd" opacity="0.259">
        <g id="discpl-logo-bg-01" transform="translate(2.000000, 1.000000)" stroke="#B4B4B4" stroke-width="5">
            <g id="Group" transform="translate(0.500000, 1.498000)">
                <g transform="translate(20.065000, 0.002000)" id="Path">
                    <g transform="translate(0.063000, 0.016000)" fill="#64DCFF">
                        <path d="M420.126,275.24 L420.11,275.24 C419.874,275.649 419.654,276.058 419.418,276.467 C405.204357,300.068354 379.661887,314.494743 352.111,314.482008 L352.111,314.466 C366.139939,290.16878 392.054536,275.189762 420.111,275.161 L420.205,275.161 L420.205,275.177 L420.158,275.256 L420.142,275.24 L420.126,275.24 Z"></path>
                        <path d="M284.115,117.94 L284.115,117.925 L284.131,117.925 C312.144366,117.926352 338.038405,132.841599 352.095,157.073 C352.126837,157.111287 352.153407,157.153663 352.174,157.199 L352.174,157.215 L352.095,157.215 C324.048297,157.200535 298.135306,142.239256 284.1,117.957 L284.115,117.94 Z"></path>
                        <path d="M283.959,196.68 C283.786,196.98 283.613,197.28 283.471,197.58 C269.3024,221.370564 243.650068,235.939095 215.96,235.921017 C229.98785,211.621119 255.901781,196.637913 283.96,196.604 L284.023,196.604 L284.039,196.62 L283.991,196.683 L283.96,196.683 L283.959,196.68 Z"></path>
                        <path d="M148.013,39.3210006 C162.044165,14.9956172 187.989016,0.00579209823 216.071,0 L216.087,0 L216.087,0.016 L216.04,0.095 L216.024,0.079 L216.009,0.079 C215.835,0.379 215.663,0.679 215.521,0.979 C201.343481,24.7591081 175.698657,39.3244016 148.013,39.3210006 Z"></path>
                        <path d="M215.85,314.656 L215.85,314.64 L215.866,314.64 C243.884499,314.640715 269.782024,329.563407 283.833,353.804 C283.864886,353.842251 283.89146,353.884635 283.912,353.93 L283.896,353.93 L283.896,353.946 L283.518,353.946 C255.581015,353.810839 229.814411,338.859631 215.834,314.672 L215.85,314.656 Z"></path>
                        <path d="M215.787,393.325 L215.787,393.308 L215.803,393.308 C243.816833,393.31054 269.711217,408.225328 283.77,432.456 C283.801688,432.494201 283.827936,432.536603 283.848,432.582 L283.848,432.598 L283.455,432.598 C255.520419,432.46941 229.75307,417.52386 215.771,393.34 L215.787,393.325 Z"></path>
                        <path d="M147.887,196.634 C161.853958,172.430659 187.623147,157.464883 215.567,157.328 L215.96,157.328 L215.96,157.344 L215.913,157.423 L215.897,157.407 L215.882,157.407 C215.709,157.707 215.536,158.007 215.394,158.307 C201.217226,182.08826 175.572264,196.654772 147.886,196.652 L147.887,196.634 Z"></path>
                        <path d="M147.697,354.024 L147.619,353.898 C133.832545,329.92915 133.671488,300.475183 147.195,276.357 C147.368,276.057 147.541,275.775 147.714,275.476 C161.731239,299.755591 161.74915,329.664638 147.761,353.961 L147.714,354.04 L147.697,354.024 Z"></path>
                        <path d="M147.619,432.71 C119.534791,432.728147 93.5788029,417.747013 79.546,393.419991 L79.562,393.42 C107.587426,393.406596 133.497555,408.324307 147.557,432.568 L147.635,432.694 L147.619,432.694 L147.619,432.71 Z"></path>
                        <path d="M11.515,196.901 L11.547,196.901 C25.5829819,221.18092 25.6008978,251.10429 11.594,275.401 L11.547,275.464 C-2.5054985,251.164567 -2.51769872,221.211873 11.515,196.901 Z"></path>
                    </g>
                    <path d="M79.857,78.78 C51.7757359,78.788474 25.8321288,93.77758 11.799,118.101005 C39.4880265,118.111238 65.1373167,103.542915 79.31,79.756 C79.483,79.456 79.656,79.173 79.829,78.875 L79.873,78.797 L79.873,78.781" stroke-linecap="round" stroke-linejoin="round"></path>
                    <path d="M147.997,39.4 C119.913497,39.3991475 93.9652404,54.388754 79.936,78.717001 C107.622726,78.7214586 133.268933,64.1560271 147.447,40.375 C147.62,40.075 147.793,39.793 147.966,39.494 L148.013,39.415" stroke-linecap="round" stroke-linejoin="round"></path>
                    <path d="M216.134,0.016 C188.052016,0.0217920982 162.107165,15.0116172 148.076,39.337 C175.76211,39.3392093 201.406657,24.7723377 215.583,0.991 C215.756,0.691 215.929,0.408 216.102,0.11 L216.149,0.031 L216.165,0.015 L216.149,0.015" stroke-linecap="round" stroke-linejoin="round"></path>
                    <path d="M11.689,196.822 C11.6928554,196.798183 11.7040412,196.776161 11.721,196.759 C25.7261166,172.456004 25.7078209,142.528854 11.673,118.243 L11.642,118.243 C-2.3891169,142.559915 -2.37729893,172.516163 11.673,196.822" stroke-linecap="round" stroke-linejoin="round"></path>
                    <path d="M11.673,196.837 L11.673,196.821" stroke-linecap="round" stroke-linejoin="round"></path>
                    <path d="M284.242,39.29 C270.192062,14.9630384 244.226731,-0.01578718 216.134,-1.24670537e-05 L216.134,0.016 L216.15,0.016 L216.15,0.032 C230.184242,24.3177611 256.100793,39.2799958 284.15,39.29" stroke-linecap="round" stroke-linejoin="round"></path>
                    <path d="M11.61,275.475 L11.657,275.412 C25.6638978,251.11529 25.6459819,221.19192 11.61,196.912 L11.578,196.912 C-2.45315799,221.221856 -2.44095794,251.172583 11.61,275.471 L11.61,275.487" stroke-linecap="round" stroke-linejoin="round"></path>
                    <path d="M352.3,78.563 C338.264745,54.2478505 312.317161,39.2743658 284.242,39.2889893" stroke-linecap="round" stroke-linejoin="round"></path>
                    <path d="M352.316,78.578 L352.316,78.562" stroke-linecap="round" stroke-linejoin="round"></path>
                    <path d="M284.211,39.289 L284.227,39.305 C298.255078,63.5965796 324.170839,78.5655564 352.222,78.579" stroke-linecap="round" stroke-linejoin="round"></path>
                    <path d="M11.563,354.149 C11.5669365,354.125416 11.5777164,354.103508 11.594,354.086 C25.5992197,329.783127 25.5813053,299.856088 11.547,275.57 L11.516,275.57 C-2.51552974,299.886805 -2.50371169,329.843274 11.547,354.149" stroke-linecap="round" stroke-linejoin="round"></path>
                    <path d="M11.548,354.164 L11.548,354.148" stroke-linecap="round" stroke-linejoin="round"></path>
                    <path d="M420.393,117.849 C406.341219,93.5390523 380.393926,78.5655614 352.315,78.563 L352.284,78.563 L352.284,78.579" stroke-linecap="round" stroke-linejoin="round"></path>
                    <path d="M352.3,78.579 L352.3,78.599 C366.339776,102.8787 392.253273,117.837648 420.3,117.853" stroke-linecap="round" stroke-linejoin="round"></path>
                    <path d="M79.624,393.42 C79.608,393.404 79.593,393.388 79.593,393.373 C65.5416466,369.094298 39.6146646,354.145981 11.563,354.15 L11.531,354.149999 L11.547,354.166 C25.5871598,378.477674 51.5343957,393.448552 79.609,393.436" stroke-linecap="round" stroke-linejoin="round"></path>
                    <path d="M420.33,117.928 L420.299,117.928 C420.126,118.228 419.953,118.528 419.811,118.828 C406.262926,142.999123 406.460171,172.522059 420.33,196.51" stroke-linecap="round" stroke-linejoin="round"></path>
                    <path d="M420.33,196.508 C434.379417,172.204676 434.379417,142.248324 420.33,117.945" stroke-linecap="round" stroke-linejoin="round"></path>
                    <path d="M147.619,432.583 C133.559555,408.339307 107.649426,393.421596 79.624,393.435 L79.608,393.434991 C93.6408029,417.762013 119.596791,432.743147 147.681,432.725016" stroke-linecap="round" stroke-linejoin="round"></path>
                    <path d="M147.714,432.725 L147.698,432.709" stroke-linecap="round" stroke-linejoin="round"></path>
                    <path d="M420.267,275.161 C434.313426,250.865195 434.319526,220.918526 420.283,196.617 L420.267,196.601 L420.236,196.601 C420,197.01 419.78,197.419 419.544,197.824 C406.187654,221.941102 406.462478,251.29718 420.268,275.16" stroke-linecap="round" stroke-linejoin="round"></path>
                    <path d="M215.693,471.857 C201.638236,447.624252 175.743613,432.708449 147.73,432.709 L147.683,432.709 L147.683,432.725 L147.699,432.725 C161.739681,457.042533 187.693063,472.015844 215.773,471.999014" stroke-linecap="round" stroke-linejoin="round"></path>
                    <path d="M215.787,471.999 L215.771,471.983" stroke-linecap="round" stroke-linejoin="round"></path>
                    <path d="M283.518,432.615 C255.573049,432.751687 229.802575,447.717325 215.834,471.921 L215.834,471.937001 C243.919511,471.940471 269.872176,456.956035 283.911,432.631 L283.927,432.615" stroke-linecap="round" stroke-linejoin="round"></path>
                    <path d="M351.654,393.231 C323.710298,393.367472 297.941062,408.332895 283.974,432.536 L283.974,432.552003 C312.059203,432.559203 338.012263,417.574039 352.047,393.247 L352.063,393.231" stroke-linecap="round" stroke-linejoin="round"></path>
                    <path d="M420.201,353.835 C434.247102,329.532319 434.253202,299.5804 420.217,275.272 L420.201,275.256 L420.17,275.256 C419.934,275.665 419.714,276.074 419.478,276.483 C406.121079,300.605535 406.395511,329.966349 420.201,353.835" stroke-linecap="round" stroke-linejoin="round"></path>
                    <path d="M420.189,353.85 C392.104922,353.846998 366.153039,368.828475 352.111,393.15 L352.111,393.166 C380.198834,393.16838 406.154903,378.187787 420.204,353.866 L420.204,353.85" stroke-linecap="round" stroke-linejoin="round"></path>
                    <path d="M79.829,157.439 C79.8333153,157.416111 79.8429019,157.394541 79.857,157.376 C93.8600882,133.080092 93.8494167,103.161912 79.829,78.876 L79.813,78.86 L79.797,78.86 C79.624,79.16 79.451,79.46 79.309,79.76 C72.39,92.811 69.259,105.436 69.259,118.216 C69.2642306,131.973158 72.893325,145.486206 79.781,157.395 L79.812,157.443" stroke-linecap="round" stroke-linejoin="round"></path>
                    <path d="M79.797,157.438 L79.781,157.39 C65.7372393,133.125634 39.8324496,118.178482 11.797,118.163 L11.719,118.163 L11.734,118.195 C25.763416,142.485588 51.6830254,157.449589 79.734,157.453" stroke-linecap="round" stroke-linejoin="round"></path>
                    <path d="M79.811,157.454 L79.811,157.438" stroke-linecap="round" stroke-linejoin="round"></path>
                    <path d="M79.798,157.453 L79.735,157.453 C51.6713052,157.470435 25.7491582,172.459917 11.735,196.774 C39.421691,196.774416 65.06661,182.208197 79.246,158.428 C79.419,158.128 79.592,157.846 79.765,157.547 L79.812,157.468" stroke-linecap="round" stroke-linejoin="round"></path>
                    <path d="M147.978,118.054 C147.981919,118.030204 147.993095,118.0082 148.01,117.991 C161.998978,93.689503 161.981068,63.7757284 147.963,39.491 L147.947,39.475 L147.932,39.475 C147.758,39.775 147.586,40.075 147.444,40.375 C133.920256,64.4974856 134.081688,93.9551824 147.869,117.928" stroke-linecap="round" stroke-linejoin="round"></path>
                    <path d="M147.95,118.055 L147.95,118.071" stroke-linecap="round" stroke-linejoin="round"></path>
                    <path d="M147.953,118.049 C147.933029,118.003554 147.906772,117.96114 147.875,117.923 C133.832132,93.6915166 107.945552,78.7744207 79.939,78.775 L79.861,78.775 L79.877,78.791 C93.9014449,103.088652 119.822394,118.059525 147.877,118.065" stroke-linecap="round" stroke-linejoin="round"></path>
                    <path d="M147.965,118.071 L147.965,118.055" stroke-linecap="round" stroke-linejoin="round"></path>
                    <path d="M216.117,78.668 C216.12204,78.6457655 216.133112,78.625351 216.149,78.609 C230.140652,54.308217 230.122741,24.3930112 216.102,0.109 L216.086,0.093 L216.071,0.093 C215.897,0.393 215.725,0.693 215.583,0.993 C202.055137,25.1158437 202.216578,54.5768616 216.008,78.55" stroke-linecap="round" stroke-linejoin="round"></path>
                    <path d="M216.087,78.672 L216.087,78.688" stroke-linecap="round" stroke-linejoin="round"></path>
                    <path d="M216.086,78.669 C216.06509,78.6252948 216.038894,78.5843217 216.008,78.547 C201.96765,54.3128549 176.083591,39.3902372 148.076,39.383 L147.997,39.383 L147.997,39.399 L148.013,39.414 C161.988923,63.6036355 187.756497,78.5547679 215.693,78.684" stroke-linecap="round" stroke-linejoin="round"></path>
                    <path d="M79.75,236.092 C79.734,236.076 79.719,236.06 79.719,236.045 C65.667496,211.766449 39.7406095,196.818187 11.689,196.822 L11.657,196.821999 L11.673,196.838 L11.689,196.869 C25.7229152,221.144304 51.6320096,236.098733 79.672,236.108" stroke-linecap="round" stroke-linejoin="round"></path>
                    <path d="M79.735,236.108 L79.672,236.108 C51.611905,236.138829 25.6959707,251.124718 11.672,275.429015 C39.3630814,275.446046 65.0156448,260.875485 79.183,237.083 C79.356,236.783 79.529,236.501 79.702,236.202 L79.749,236.124 L79.749,236.108" stroke-linecap="round" stroke-linejoin="round"></path>
                    <path d="M79.609,314.781 C51.5450988,314.798641 25.6229039,329.788532 11.609,354.103 C39.295691,354.103416 64.94061,339.537197 79.12,315.757 C79.293,315.457 79.466,315.174 79.639,314.876 L79.686,314.797" stroke-linecap="round" stroke-linejoin="round"></path>
                    <path d="M79.621,393.436 L79.621,393.42 L79.668,393.357 C93.6687225,369.066863 93.656526,339.154712 79.636,314.876 L79.62,314.86 L79.604,314.86 C79.431,315.16 79.258,315.46 79.116,315.76 C65.5714197,339.90367 65.7507826,369.397846 79.588,393.375 L79.619,393.422" stroke-linecap="round" stroke-linejoin="round"></path>
                    <path d="M147.682,354.055 C119.624864,354.089051 93.7123458,369.072923 79.687,393.373006 C107.375332,393.383622 133.023746,378.814554 147.194,355.027 C147.367,354.727 147.54,354.444 147.713,354.15 L147.76,354.072 L147.776,354.056" stroke-linecap="round" stroke-linejoin="round"></path>
                    <path d="M147.698,432.71 L147.698,432.726 L147.714,432.726 L147.73,432.71 C147.733821,432.686379 147.744617,432.66444 147.761,432.647 C161.750389,408.345613 161.732479,378.431618 147.714,354.147 L147.698,354.131 L147.682,354.131 C147.509,354.431 147.336,354.725 147.195,355.024 C133.665224,379.146254 133.826291,408.608117 147.619,432.581 L147.698,432.71 Z" stroke-linecap="round" stroke-linejoin="round"></path>
                    <path d="M215.441,393.341 C187.497298,393.477472 161.728062,408.442895 147.761,432.646 L147.761,432.662001 C175.447635,432.666173 201.09324,418.099296 215.269,394.317 C215.442,394.017 215.615,393.734 215.788,393.436 L215.835,393.357 L215.851,393.341" stroke-linecap="round" stroke-linejoin="round"></path>
                    <path d="M215.772,471.995 L215.788,471.995 L215.835,471.916 C229.834682,447.622718 229.816768,417.707497 215.788,393.431 L215.772,393.415 L215.756,393.415 C215.583,393.715 215.41,394.015 215.269,394.315 C201.741481,418.432147 201.902549,447.888229 215.693,471.856 L215.772,471.982" stroke-linecap="round" stroke-linejoin="round"></path>
                    <path d="M283.928,354.024 L283.897,354.024 C283.724,354.324 283.551,354.618 283.409,354.917 C269.87793,379.039015 270.039381,408.501725 283.834,432.474" stroke-linecap="round" stroke-linejoin="round"></path>
                    <path d="M283.928,432.614 L283.975,432.536 C297.980042,408.238794 297.962126,378.316419 283.928,354.036" stroke-linecap="round" stroke-linejoin="round"></path>
                    <path d="M283.911,432.599 L283.911,432.615" stroke-linecap="round" stroke-linejoin="round"></path>
                    <path d="M215.834,393.341 L215.834,393.357 C229.81607,417.54086 255.583419,432.48641 283.518,432.615 L283.927,432.615 L283.911,432.599 C283.890936,432.553603 283.864688,432.511201 283.833,432.473 C269.774291,408.241634 243.879396,393.326391 215.865,393.324" stroke-linecap="round" stroke-linejoin="round"></path>
                    <polyline stroke-linecap="round" stroke-linejoin="round" points="215.835 393.325 215.819 393.325 215.819 393.34"></polyline>
                    <path d="M352.064,314.644 L352.033,314.644 C351.859,314.944 351.687,315.244 351.545,315.544 C338.01745,339.665502 338.178893,369.125207 351.97,393.097" stroke-linecap="round" stroke-linejoin="round"></path>
                    <path d="M352.064,393.23 L352.111,393.152 C366.117692,368.855235 366.099776,338.931976 352.064,314.652" stroke-linecap="round" stroke-linejoin="round"></path>
                    <path d="M352.049,393.216 L352.049,393.232" stroke-linecap="round" stroke-linejoin="round"></path>
                    <path d="M283.975,353.956 C297.947334,378.149218 323.717168,393.101662 351.655,393.226 L352.064,393.226 L352.048,393.21 C352.028124,393.164504 352.00186,393.122077 351.97,393.084 C337.911326,368.847387 312.008916,353.932354 283.99,353.94" stroke-linecap="round" stroke-linejoin="round"></path>
                    <polyline stroke-linecap="round" stroke-linejoin="round" points="283.973 353.944 283.958 353.944 283.958 353.955"></polyline>
                    <path d="M352.095,314.560984 L352.11,314.577 C366.155173,338.891992 392.108015,353.864112 420.188,353.851 L420.203,353.851009 L420.203,353.835 C406.161632,329.516689 380.206953,314.54329 352.126,314.561" stroke-linecap="round" stroke-linejoin="round"></path>
                    <path d="M216.149,78.6110132 C243.839817,78.6270433 269.491919,64.0567436 283.66,40.265 C283.833,39.965 284.006,39.682 284.179,39.384 L284.227,39.305 L284.242,39.289 L284.148,39.289 C256.088831,39.3232729 230.174648,54.3087505 216.149,78.6110132 Z" stroke-linecap="round" stroke-linejoin="round"></path>
                    <path d="M284.195,117.944 C284.198855,117.920183 284.210041,117.898161 284.227,117.881 C298.223284,93.5813579 298.20499,63.6635075 284.179,39.381 L284.164,39.365 L284.148,39.365 C283.975,39.665 283.802,39.965 283.66,40.265 C270.129043,64.3856221 270.290495,93.8471248 284.085,117.818" stroke-linecap="round" stroke-linejoin="round"></path>
                    <path d="M284.162,117.945 L284.162,117.961" stroke-linecap="round" stroke-linejoin="round"></path>
                    <path d="M352.252,78.658 L352.299,78.595 L352.314,78.579 L352.22,78.579 C324.164141,78.6002799 298.248284,93.5792224 284.225,117.879 L284.225,117.894003 C311.912389,117.902026 337.559467,103.334097 351.732,79.549 C351.905,79.249 352.078,78.966 352.251,78.668" stroke-linecap="round" stroke-linejoin="round"></path>
                    <path d="M352.253,157.234 L352.3,157.155 C366.305456,132.863262 366.28754,102.944947 352.253,78.67 L352.253,78.658 L352.222,78.658 C352.048,78.953 351.876,79.252 351.734,79.551 C338.206389,103.66822 338.367838,133.124514 352.159,157.092" stroke-linecap="round" stroke-linejoin="round"></path>
                    <path d="M352.238,157.218 L352.238,157.234" stroke-linecap="round" stroke-linejoin="round"></path>
                    <path d="M352.3,157.155 L352.3,157.17101 C379.990182,157.184637 405.641177,142.614965 419.811,118.825 C419.984,118.525 420.157,118.242 420.33,117.944 L420.33,117.928 L420.377,117.865 L420.393,117.849 L420.298,117.849 C392.241989,117.878476 366.328176,132.857862 352.3,157.155 Z" stroke-linecap="round" stroke-linejoin="round"></path>
                    <path d="M420.329,196.523 L420.329,196.508 C406.287935,172.189387 380.333064,157.215877 352.252,157.233984" stroke-linecap="round" stroke-linejoin="round"></path>
                    <path d="M352.221,157.234 L352.237,157.249 C366.266425,181.541673 392.184218,196.510723 420.237,196.523" stroke-linecap="round" stroke-linejoin="round"></path>
                    <path d="M352.237,235.825 L352.237,235.841003 C379.786124,235.848038 405.325681,221.423079 419.543,197.826 C419.81,197.437 420.043,197.026 420.282,196.618 L420.329,196.539 L420.329,196.523 L420.235,196.523 C392.17832,196.546093 366.262122,211.525334 352.237,235.825 Z" stroke-linecap="round" stroke-linejoin="round"></path>
                    <path d="M420.267,275.177 L420.267,275.161 C406.215787,250.859864 380.276013,235.891766 352.205,235.887" stroke-linecap="round" stroke-linejoin="round"></path>
                    <path d="M352.174,235.903 L352.174,235.919 C366.211556,260.201445 392.126007,275.162467 420.174,275.177" stroke-linecap="round" stroke-linejoin="round"></path>
                    <polyline stroke-linecap="round" stroke-linejoin="round" points="352.175 235.889 352.159 235.889 352.159 235.905"></polyline>
                    <path d="M352.174,314.482 L352.174,314.498008 C379.724887,314.510743 405.267357,300.084354 419.481,276.483 C419.748,276.089 419.981,275.683 420.221,275.272 L420.268,275.193 L420.268,275.177 L420.174,275.177 C392.117536,275.205762 366.202939,290.18478 352.174,314.482 Z" stroke-linecap="round" stroke-linejoin="round"></path>
                    <path d="M147.934,118.07 L147.871,118.07 C119.808025,118.090116 93.8871225,133.078878 79.871,157.391001 C107.558184,157.396173 133.205174,142.831108 147.384,119.05 C147.557,118.75 147.73,118.468 147.903,118.169 L147.95,118.091" stroke-linecap="round" stroke-linejoin="round"></path>
                    <path d="M147.966,118.071 L147.95,118.071" stroke-linecap="round" stroke-linejoin="round"></path>
                    <path d="M216.071,78.685 L215.693,78.685 C187.748632,78.8190242 161.978266,93.7851035 148.013,117.990016 C175.703132,118.007441 201.354681,103.436592 215.52,79.644 C215.693,79.344 215.866,79.062 216.039,78.763 L216.086,78.7" stroke-linecap="round" stroke-linejoin="round"></path>
                    <polyline stroke-linecap="round" stroke-linejoin="round" points="216.103 78.668 216.103 78.683 216.087 78.683"></polyline>
                    <path d="M79.75,236.108 L79.75,236.092 L79.797,236.029 C93.7971045,211.738697 93.7849082,181.826878 79.765,157.548 L79.749,157.532 L79.733,157.532 C79.56,157.832 79.387,158.132 79.245,158.432 C65.6786908,182.570413 65.858123,212.076365 79.717,236.048 L79.748,236.095" stroke-linecap="round" stroke-linejoin="round"></path>
                    <path d="M284.163,117.944 C284.142323,117.898708 284.115761,117.856343 284.084,117.818 C270.026127,93.5860228 244.131505,78.6699556 216.117,78.667 L216.101,78.667" stroke-linecap="round" stroke-linejoin="round"></path>
                    <path d="M284.178,117.961 L284.178,117.945" stroke-linecap="round" stroke-linejoin="round"></path>
                    <path d="M216.07,78.685 L216.085,78.685 L216.085,78.701 C230.064231,102.887695 255.833368,117.834282 283.769,117.959" stroke-linecap="round" stroke-linejoin="round"></path>
                    <path d="M79.704,314.765 C79.7082752,314.741322 79.719401,314.719418 79.736,314.702 C93.7364093,290.404993 93.7242136,260.487584 79.704,236.202 L79.688,236.187 L79.672,236.187 C79.499,236.487 79.326,236.787 79.184,237.087 C65.617726,261.232179 65.7971472,290.743559 79.656,314.722 L79.687,314.769" stroke-linecap="round" stroke-linejoin="round"></path>
                    <path d="M352.253,157.234 L352.237,157.218 C352.216676,157.172741 352.190448,157.130373 352.159,157.092 C338.102405,132.860599 312.208366,117.945352 284.195,117.944 L284.148,117.944 L284.148,117.956" stroke-linecap="round" stroke-linejoin="round"></path>
                    <path d="M284.163,117.959 L284.163,117.975 C298.198457,142.257105 324.111352,157.21833 352.158,157.233" stroke-linecap="round" stroke-linejoin="round"></path>
                    <path d="M147.682,353.913 C133.62512,329.674554 107.722602,314.757716 79.703,314.765 L79.687,314.764997" stroke-linecap="round" stroke-linejoin="round"></path>
                    <path d="M147.777,354.055 L147.761,354.039" stroke-linecap="round" stroke-linejoin="round"></path>
                    <path d="M79.687,314.781 L79.687,314.797 C93.7149189,339.086645 119.632591,354.050627 147.682,354.055 L147.745,354.055" stroke-linecap="round" stroke-linejoin="round"></path>
                    <path d="M79.67,314.765 L79.67,314.781" stroke-linecap="round" stroke-linejoin="round"></path>
                    <path d="M147.761,354.055 L147.745,354.055 L147.761,354.071 C161.730789,378.266757 187.502227,393.220131 215.441,393.341 L215.835,393.341" stroke-linecap="round" stroke-linejoin="round"></path>
                    <path d="M215.755,393.199 C201.706127,368.953046 175.798075,354.034545 147.776,354.054979" stroke-linecap="round" stroke-linejoin="round"></path>
                    <path d="M215.852,393.327 L215.836,393.327" stroke-linecap="round" stroke-linejoin="round"></path>
                    <path d="M147.903,196.727 L147.95,196.649 C161.937944,172.352583 161.920033,142.443646 147.903,118.164 L147.887,118.149 L147.872,118.149 C147.698,118.449 147.526,118.749 147.384,119.049 C133.860218,143.167564 134.021655,172.622125 147.809,196.591" stroke-linecap="round" stroke-linejoin="round"></path>
                    <path d="M147.887,196.711 L147.887,196.727" stroke-linecap="round" stroke-linejoin="round"></path>
                    <path d="M147.903,196.727 L147.887,196.711 C147.867017,196.665561 147.840762,196.623148 147.809,196.585 C133.75134,172.346848 107.848739,157.430181 79.829,157.437 L79.798,157.436998 L79.798,157.452 L79.814,157.452 L79.814,157.468 C93.8417559,181.760249 119.762418,196.724856 147.814,196.726" stroke-linecap="round" stroke-linejoin="round"></path>
                    <path d="M147.871,196.727 L147.808,196.727 C119.748966,196.758856 93.8339387,211.743078 79.808,236.045006 C107.496279,236.055422 133.144601,221.486406 147.315,197.699 C147.488,197.399 147.661,197.121 147.834,196.822 L147.881,196.744 L147.897,196.728" stroke-linecap="round" stroke-linejoin="round"></path>
                    <path d="M216.054,157.325 C216.058048,157.301452 216.068813,157.279575 216.085,157.262 C230.076652,132.961217 230.058741,103.046011 216.038,78.762 L216.022,78.746 L216.007,78.746 C215.834,79.046 215.661,79.346 215.519,79.646 C201.991537,103.768947 202.152978,133.229754 215.944,157.203" stroke-linecap="round" stroke-linejoin="round"></path>
                    <path d="M216.024,157.328 L216.024,157.344" stroke-linecap="round" stroke-linejoin="round"></path>
                    <path d="M216.022,157.328 C216.002041,157.282548 215.975783,157.240132 215.944,157.202 C201.887255,132.970749 175.993311,118.055557 147.98,118.054 L147.933,118.054 L147.933,118.07 L147.948,118.07 L147.948,118.086 C161.925764,142.272211 187.693522,157.218881 215.628,157.344" stroke-linecap="round" stroke-linejoin="round"></path>
                    <path d="M216.04,157.344 L216.04,157.328" stroke-linecap="round" stroke-linejoin="round"></path>
                    <path d="M284.116,118.038 L284.164,117.975 L284.179,117.959 L283.77,117.959 C255.824952,118.095329 230.054157,133.060552 216.085,157.264 L216.085,157.280001 C243.77259,157.283819 269.419072,142.716711 283.596,118.934 C283.769,118.634 283.942,118.352 284.115,118.053" stroke-linecap="round" stroke-linejoin="round"></path>
                    <path d="M147.745,275.256 C133.695636,251.002197 107.779108,236.080802 79.75,236.108 L79.734,236.107963 L79.75,236.124 C93.7720416,260.421615 119.691627,275.392801 147.745,275.398" stroke-linecap="round" stroke-linejoin="round"></path>
                    <path d="M147.809,275.397 L147.746,275.397 C119.684147,275.416428 93.7644164,290.405614 79.751,314.718 C107.437361,314.720161 133.082185,300.153348 147.259,276.372 C147.432,276.072 147.605,275.79 147.778,275.491 L147.825,275.413" stroke-linecap="round" stroke-linejoin="round"></path>
                    <path d="M284.116,196.618 L284.164,196.539 C298.159458,172.244494 298.141163,142.331369 284.116,118.054 L284.116,118.038 L284.085,118.038 C283.912,118.338 283.739,118.638 283.597,118.938 C270.06598,143.054339 270.227439,172.512432 284.022,196.479" stroke-linecap="round" stroke-linejoin="round"></path>
                    <path d="M284.099,196.601 L284.099,196.617" stroke-linecap="round" stroke-linejoin="round"></path>
                    <path d="M352.189,157.312 L352.236,157.249 L352.252,157.234 L352.158,157.234 C324.104705,157.269686 298.194809,172.247088 284.163,196.539 L284.163,196.555008 C311.851861,196.567627 337.501197,181.998035 351.67,158.209 C351.843,157.909 352.016,157.627 352.189,157.328" stroke-linecap="round" stroke-linejoin="round"></path>
                    <path d="M147.76,354.037 L147.76,354.053 L147.776,354.053 L147.823,353.975 C161.81115,329.678638 161.793239,299.769591 147.776,275.49 L147.76,275.474 L147.744,275.474 C147.571,275.774 147.398,276.074 147.257,276.374 C133.733488,300.492183 133.894545,329.94615 147.681,353.915 L147.76,354.037 Z" stroke-linecap="round" stroke-linejoin="round"></path>
                    <path d="M215.928,314.655 C215.931993,314.631434 215.942765,314.609542 215.959,314.592 C229.95106,290.296682 229.933148,260.385542 215.912,236.107 L215.896,236.091 L215.881,236.091 C215.708,236.391 215.535,236.691 215.393,236.991 C201.86528,261.108096 202.026349,290.564283 215.817,314.532" stroke-linecap="round" stroke-linejoin="round"></path>
                    <path d="M215.899,314.655 L215.899,314.671" stroke-linecap="round" stroke-linejoin="round"></path>
                    <path d="M215.504,314.667 C187.562127,314.810198 161.795997,329.773817 147.824,353.972 L147.824,353.988 C175.510467,353.990562 201.155475,339.423644 215.332,315.642 C215.505,315.342 215.678,315.06 215.851,314.761 L215.898,314.683 L215.914,314.667" stroke-linecap="round" stroke-linejoin="round"></path>
                    <path d="M284.053,196.696 L284.022,196.696 C283.849,196.996 283.676,197.296 283.534,197.596 C270.003221,221.716313 270.164674,251.177434 283.959,275.148" stroke-linecap="round" stroke-linejoin="round"></path>
                    <path d="M284.069,275.272 C284.073042,275.248244 284.084201,275.226276 284.101,275.209 C298.097695,250.909468 298.079402,220.991397 284.053,196.709" stroke-linecap="round" stroke-linejoin="round"></path>
                    <path d="M284.036,275.272 L284.036,275.288" stroke-linecap="round" stroke-linejoin="round"></path>
                    <path d="M284.038,275.271 C284.017771,275.225691 283.991535,275.18331 283.96,275.145 C269.901544,250.913249 244.006602,235.997598 215.992,235.995" stroke-linecap="round" stroke-linejoin="round"></path>
                    <path d="M284.052,275.288 L284.052,275.272" stroke-linecap="round" stroke-linejoin="round"></path>
                    <path d="M215.96,236.013 L215.96,236.029 C229.94207,260.21286 255.709419,275.15841 283.644,275.287" stroke-linecap="round" stroke-linejoin="round"></path>
                    <polyline stroke-linecap="round" stroke-linejoin="round" points="215.961 235.997 215.942 235.997 215.942 236.012"></polyline>
                    <path d="M352.096,235.761 C338.037176,211.524537 312.134861,196.609559 284.116,196.616997" stroke-linecap="round" stroke-linejoin="round"></path>
                    <path d="M284.085,196.617 L284.101,196.633 C298.073334,220.826218 323.843168,235.778662 351.781,235.903" stroke-linecap="round" stroke-linejoin="round"></path>
                    <path d="M215.85,393.326 L215.866,393.326 C215.870155,393.302487 215.880906,393.280638 215.897,393.263 C229.898125,368.964747 229.880211,339.04447 215.85,314.763 L215.834,314.748 L215.818,314.748 C215.645,315.048 215.472,315.348 215.331,315.648 C201.803542,339.76943 201.964604,369.228923 215.755,393.201 L215.834,393.327 L215.834,393.343 L215.85,393.343" stroke-linecap="round" stroke-linejoin="round"></path>
                    <path d="M283.991,275.366 L283.96,275.366 C283.787,275.666 283.614,275.966 283.472,276.266 C269.94093,300.388015 270.102381,329.850725 283.897,353.823" stroke-linecap="round" stroke-linejoin="round"></path>
                    <path d="M283.987,353.945 L284.034,353.867 C298.029767,329.572673 298.011854,299.659548 283.987,275.382" stroke-linecap="round" stroke-linejoin="round"></path>
                    <path d="M283.99,353.945 L283.974,353.945 C283.953739,353.899708 283.927506,353.857331 283.896,353.819 C269.845024,329.578407 243.947499,314.655715 215.929,314.655 L215.918,314.655" stroke-linecap="round" stroke-linejoin="round"></path>
                    <path d="M215.897,314.667 L215.897,314.683 C229.877411,338.870631 255.644015,353.821839 283.581,353.957" stroke-linecap="round" stroke-linejoin="round"></path>
                    <polyline stroke-linecap="round" stroke-linejoin="round" points="215.895 314.655 215.879 314.655 215.879 314.671"></polyline>
                    <path d="M352.131,235.984 L352.1,235.984 C351.926,236.284 351.754,236.584 351.612,236.884 C338.084389,261.00122 338.245838,290.457514 352.037,314.425" stroke-linecap="round" stroke-linejoin="round"></path>
                    <path d="M352.126,314.56 L352.173,314.482 C366.178456,290.190262 366.16054,260.271947 352.126,235.997" stroke-linecap="round" stroke-linejoin="round"></path>
                    <path d="M352.112,314.545 L352.112,314.561" stroke-linecap="round" stroke-linejoin="round"></path>
                    <path d="M352.127,314.56 L352.111,314.545 C352.090936,314.499603 352.064688,314.457201 352.033,314.419 C337.976302,290.187833 312.082215,275.272939 284.069,275.272 L284.053,275.272" stroke-linecap="round" stroke-linejoin="round"></path>
                    <path d="M284.037,275.287 L284.037,275.303 C298.073351,299.586651 323.988566,314.548114 352.037,314.561" stroke-linecap="round" stroke-linejoin="round"></path>
                    <path d="M147.84,275.381 L147.809,275.381 L147.809,275.397 L147.824,275.397 L147.824,275.413 C161.801764,299.599211 187.569522,314.545881 215.504,314.671 L215.913,314.671 L215.913,314.655 L215.897,314.655 C215.876827,314.609438 215.850223,314.567006 215.818,314.529 C201.761735,290.297757 175.868063,275.382503 147.855,275.381" stroke-linecap="round" stroke-linejoin="round"></path>
                    <path d="M215.96,314.596 L215.96,314.612 C243.647114,314.614017 269.292768,300.04738 283.471,276.266 C283.644,275.966 283.817,275.683 283.99,275.385 L283.99,275.369 L284.037,275.306 L284.053,275.29 L283.644,275.29 C255.699104,275.426891 229.928724,290.392474 215.96,314.596 Z" stroke-linecap="round" stroke-linejoin="round"></path>
                    <path d="M352.17,235.903 L351.777,235.903 C323.833242,236.039268 298.063912,251.004745 284.097,275.208 L284.097,275.224003 C311.784591,275.231817 337.431715,260.663481 351.604,236.878 C351.777,236.578 351.95,236.296 352.123,235.997 L352.123,235.982 L352.17,235.919 L352.186,235.903" stroke-linecap="round" stroke-linejoin="round"></path>
                    <path d="M147.823,275.382 L147.823,275.398 L147.839,275.398 L147.839,275.382 L147.855,275.382 C147.858937,275.358416 147.869716,275.336508 147.886,275.319 C161.875389,251.017613 161.857479,221.103618 147.839,196.819 L147.823,196.803 L147.808,196.803 C147.634,197.103 147.462,197.403 147.32,197.696 C133.796434,221.819858 133.957483,251.278445 147.744,275.253 L147.823,275.382 Z" stroke-linecap="round" stroke-linejoin="round"></path>
                    <path d="M215.567,236.013 C187.623203,236.150086 161.854108,251.115808 147.887,275.319 L147.887,275.335001 C175.573481,275.338611 201.218671,260.771373 215.394,236.989 C215.567,236.689 215.74,236.406 215.913,236.108 L215.96,236.029" stroke-linecap="round" stroke-linejoin="round"></path>
                    <path d="M216.008,157.343 L215.63,157.343 C187.686147,157.479883 161.916958,172.445659 147.95,196.649 L147.95,196.664 C175.636264,196.666772 201.281226,182.10026 215.458,158.319 C215.631,158.019 215.804,157.737 215.977,157.438 L216.024,157.359 L216.04,157.343 L216.024,157.343" stroke-linecap="round" stroke-linejoin="round"></path>
                    <path d="M215.976,235.997 L215.992,235.997 C215.996155,235.973487 216.006906,235.951638 216.023,235.934 C230.016299,211.633657 229.998387,181.71757 215.976,157.434 L215.96,157.418 L215.945,157.418 C215.772,157.718 215.599,158.018 215.457,158.318 C201.929629,182.439193 202.091072,211.898517 215.882,235.87" stroke-linecap="round" stroke-linejoin="round"></path>
                    <path d="M215.96,235.997 C215.939814,235.951668 215.913575,235.909282 215.882,235.871 C201.833127,211.625046 175.925075,196.706545 147.903,196.727 L147.872,196.726979 L147.887,196.743 C161.861577,220.933979 187.629999,235.885603 215.567,236.013 L215.96,236.013" stroke-linecap="round" stroke-linejoin="round"></path>
                    <path d="M284.112,196.618 L284.097,196.602 C284.076192,196.556779 284.04964,196.514429 284.018,196.476 C269.961388,172.244974 244.06805,157.329531 216.055,157.327 L216.039,157.327" stroke-linecap="round" stroke-linejoin="round"></path>
                    <path d="M216.007,157.343 L216.022,157.343 L216.022,157.359 C230.059405,181.641596 255.973952,196.602673 284.022,196.617" stroke-linecap="round" stroke-linejoin="round"></path>
                    <path d="M216.023,235.934017 C243.713068,235.952095 269.3654,221.383564 283.534,197.593 C283.707,197.293 283.88,197.011 284.053,196.712 L284.053,196.696 L284.101,196.633 L284.116,196.617 L284.022,196.617 C255.964138,196.651269 230.050671,211.634428 216.023,235.934017 Z" stroke-linecap="round" stroke-linejoin="round"></path>
                    <path d="M352.19,235.888 L352.206,235.888 C352.210161,235.864284 352.221303,235.842348 352.238,235.825 C366.244485,211.528179 366.226569,181.605031 352.191,157.325 L352.191,157.315 L352.16,157.315 C351.986,157.615 351.814,157.915 351.672,158.215 C338.14425,182.336451 338.305693,211.796261 352.097,235.768 L352.175,235.894" stroke-linecap="round" stroke-linejoin="round"></path>
                    <path d="M283.975,353.956 L283.582,353.956 C255.637563,354.088795 229.866149,369.052694 215.898,393.256024 C243.590299,393.277663 269.244986,378.705895 283.409,354.91 C283.582,354.61 283.755,354.332 283.928,354.033 L283.928,354.017 L283.975,353.954 L283.991,353.954 L283.991,353.938" stroke-linecap="round" stroke-linejoin="round"></path>
                    <path d="M284.037,353.867 L284.037,353.883019 C311.727912,353.9024 337.380661,339.331085 351.545,315.537 C351.718,315.237 351.891,314.955 352.064,314.656 L352.064,314.64 L352.111,314.577 L352.127,314.561 L352.033,314.561 C323.979252,314.596947 298.069035,329.574695 284.037,353.867 Z" stroke-linecap="round" stroke-linejoin="round"></path>
                </g>
                <circle id="Oval" stroke-linecap="round" stroke-linejoin="round" cx="235.997" cy="236.004" r="235.997"></circle>
            </g>
        </g>
    </g>
</svg>