<?xml version="1.0" encoding="UTF-8"?>
<svg width="30px" height="30px" viewBox="0 0 30 30" version="1.1" xmlns="http://www.w3.org/2000/svg" xmlns:xlink="http://www.w3.org/1999/xlink">
    <!-- Generator: Sketch 52.6 (67491) - http://www.bohemiancoding.com/sketch -->
    <title>icon-arrow-right-open</title>
    <desc>Created with Sketch.</desc>
    <g id="icon-arrow-right-open" stroke="none" stroke-width="1" fill="none" fill-rule="evenodd">
        <path d="M25.4198388,17.0479869 L18.3395848,24.1279156 C17.4193189,25.0505126 15.9765291,25.0939682 15.1141976,24.2326549 C14.2540944,23.3713416 14.2986593,21.928391 15.2189252,21.0091368 L18.6058603,17.6195959 L6.06863,17.6195959 C4.84643666,17.6195959 3.86043748,16.6301441 3.85820923,15.4122716 C3.85820923,14.1932848 4.84643666,13.2060615 6.06863,13.2060615 L18.6704794,13.2060615 L15.2657184,9.80314961 C14.3610502,8.89615213 14.3220559,7.45988709 15.1877298,6.59968801 C16.0489472,5.73948893 17.4805957,5.7740306 18.386378,6.68102808 L25.3730456,13.6651315 C25.403127,13.6952162 25.4254094,13.7342148 25.4510343,13.7631853 C25.4766591,13.7854702 25.5033981,13.7999554 25.5245664,13.8233546 C26.3868979,14.680211 26.3412189,16.12539 25.4198388,17.0479869 Z" id="Path" fill="#030104" fill-rule="nonzero"></path>
    </g>
</svg>