<svg height="64" viewBox="0 0 64 64" width="64" xmlns="http://www.w3.org/2000/svg"><path d="m23.8020218 54.5935836h10.4205106v-17.5569097c0-.9397745.0681509-1.8786063.3435747-2.5487965.7529501-1.878135 2.4680032-3.8222521 5.3458521-3.8222521 3.7718008 0 5.2795814 2.8843629 5.2795814 7.1081636v16.8197947h10.4195705v-18.025383c0-9.6579027-5.1404594-14.1508164-11.9969119-14.1508164-5.6217459 0-8.0897492 3.1525333-9.4602877 5.2983673h.0686209v-4.5603097h-10.4205106c.1367718 2.9494025 0 31.4381418 0 31.4381418zm-10.9758232-35.7286787c3.6331491 0 5.8948196-2.4163609 5.8948196-5.4317455-.0676809-3.0846659-2.2616705-5.4331594-5.8261986-5.4331594-3.56499816 0-5.8948196 2.3484935-5.8948196 5.4331594 0 3.0153846 2.26120053 5.4317455 5.7580477 5.4317455zm5.2095503 4.2907254h-10.42004059v31.4381416h10.42004059z" fill-rule="evenodd"/></svg>