<svg height="64" viewBox="0 0 64 64" width="64" xmlns="http://www.w3.org/2000/svg"><path d="m55.6111111 15.6410562c-1.7885775.787185-3.7105111 1.3193863-5.7281061 1.5584886 2.0592022-1.224804 3.6406325-3.1646212 4.3851172-5.4757087-1.9269125 1.1342804-4.06115 1.957816-6.3330111 2.4017876-1.8191605-1.9235829-4.4110775-3.1256237-7.2794869-3.1256237-5.5081567 0-9.9734658 4.431599-9.9734658 9.8972496 0 .7758916.0881931 1.5311374.2581782 2.2555029-8.288551-.4127383-15.6372054-4.3530747-20.5561043-10.3410448-.85846019 1.4617889-1.35027897 3.1619743-1.35027897 4.9757996 0 3.4337216 1.76066137 6.463175 4.43668187 8.2381791-1.6347729-.0513496-3.1726401-.4967329-4.5172292-1.2380385-.00071122.0412915-.00088903.0827595-.00088903.1244039 0 4.7954581 3.43775273 8.7957906 8.00014523 9.7050854-.8369453.2260444-1.7179873.346919-2.6274786.346919-.6427783 0-1.2674202-.0619372-1.8764149-.1775181 1.2691983 3.9322192 4.952327 6.7936833 9.3162851 6.8737958-3.4132152 2.6544775-7.7133399 4.2366117-12.38597386 4.2366117-.80493983 0-1.59885552-.0467617-2.37907994-.1381678 4.4137445 2.8081736 9.6558996 4.446598 15.2879891 4.446598 18.3443423 0 28.3755959-15.081271 28.3755959-28.1604349 0-.429149-.0097794-.856004-.028805-1.2803887 1.9484272-1.3954402 3.63921-3.1386817 4.9763311-5.123496" fill="#000000" fill-rule="evenodd"/></svg>
