<svg height="64" viewBox="0 0 64 64" width="64" xmlns="http://www.w3.org/2000/svg"><path d="m31.9970533 0c-17.6683139 0-31.9970533 14.3267749-31.9970533 32.0009822 0 14.1381872 9.16811443 26.1311888 21.8840357 30.3626263 1.6010314.2946683 2.1844747-.6934529 2.1844747-1.5420977 0-.7582799-.0275024-2.7718469-.043218-5.4415421-8.9009485 1.9330243-10.7789681-4.2903711-10.7789681-4.2903711-1.4556616-3.6971055-3.55370022-4.6812978-3.55370022-4.6812978-2.90542988-1.9841002.22001903-1.944811.22001903-1.944811 3.21188499.2259123 4.90131679 3.298321 4.90131679 3.298321 2.854354 4.88953 7.4904693 3.4770864 9.3134842 2.6579084.2907394-2.0666073 1.1177752-3.4770864 2.0312471-4.2766199-7.105436-.8073912-14.5762608-3.5537002-14.5762608-15.8158323 0-3.4928021 1.2474293-6.351085 3.2943921-8.5866355-.3300286-.8093558-1.4281593-4.0644587.3143129-8.4687683 0 0 2.6854108-.8604315 8.7987968 3.2806409 2.5518278-.7111329 5.290279-1.0647349 8.01105-1.0784861 2.7188066.0137512 5.4552933.3673532 8.0110501 1.0784861 6.109457-4.1410724 8.7909389-3.2806409 8.7909389-3.2806409 1.7464011 4.4043096.6482704 7.6594125.3202063 8.4687683 2.0508917 2.2355505 3.2884987 5.0938334 3.2884987 8.5866355 0 12.2935634-7.4826115 14.9986188-14.6096565 15.7902944 1.1472421.9881212 2.1707235 2.9407901 2.1707235 5.9267626 0 4.2766199-.0392891 7.7281685-.0392891 8.7771878 0 .8565026.5775499 1.8524816 2.2001903 1.5401332 12.706099-4.2412597 21.8663556-16.2264035 21.8663556-30.3606618 0-17.6742073-14.3287394-32.0009822-32.0029467-32.0009822" fill="#000000" fill-rule="evenodd"/></svg>
