<?xml version="1.0" encoding="UTF-8"?>
<svg width="64px" height="64px" viewBox="0 0 64 64" version="1.1" xmlns="http://www.w3.org/2000/svg" xmlns:xlink="http://www.w3.org/1999/xlink">
    <!-- Generator: Sketch 52.6 (67491) - http://www.bohemiancoding.com/sketch -->
    <title>icon-linkedin</title>
    <desc>Created with Sketch.</desc>
    <g id="icon-linkedin" stroke="none" stroke-width="1" fill="none" fill-rule="evenodd">
        <path d="M23.8020218,54.5935836 L34.2225324,54.5935836 L34.2225324,37.0366739 C34.2225324,36.0968994 34.2906833,35.1580676 34.5661071,34.4878774 C35.3190572,32.6097424 37.0341103,30.6656253 39.9119592,30.6656253 C43.68376,30.6656253 45.1915406,33.5499882 45.1915406,37.7737889 L45.1915406,54.5935836 L55.6111111,54.5935836 L55.6111111,36.5682006 C55.6111111,26.9102979 50.4706517,22.4173842 43.6141992,22.4173842 C37.9924533,22.4173842 35.52445,25.5699175 34.1539115,27.7157515 L34.2225324,27.7157515 L34.2225324,23.1554418 L23.8020218,23.1554418 C23.9387936,26.1048443 23.8020218,54.5935836 23.8020218,54.5935836 Z M12.8261986,18.8649049 C16.4593477,18.8649049 18.7210182,16.448544 18.7210182,13.4331594 C18.6533373,10.3484935 16.4593477,8 12.8948196,8 C9.32982144,8 7,10.3484935 7,13.4331594 C7,16.448544 9.26120053,18.8649049 12.7580477,18.8649049 L12.8261986,18.8649049 Z M18.0357489,23.1556303 L7.61570831,23.1556303 L7.61570831,54.5937719 L18.0357489,54.5937719 L18.0357489,23.1556303 Z" fill="#000000"></path>
    </g>
</svg>