<?xml version="1.0" encoding="UTF-8"?>
<svg width="159px" height="51px" viewBox="0 0 159 51" version="1.1" xmlns="http://www.w3.org/2000/svg" xmlns:xlink="http://www.w3.org/1999/xlink">
    <!-- Generator: Sketch 52.6 (67491) - http://www.bohemiancoding.com/sketch -->
    <title>ictu-logo</title>
    <desc>Created with Sketch.</desc>
    <g id="import" stroke="none" stroke-width="1" fill="none" fill-rule="evenodd">
        <g id="ictu-logo">
            <rect id="Rectangle" fill="#42ABE1" x="78.7" y="12.5" width="6" height="38.3"></rect>
            <path d="M152.3,3.6 C152.3,1.94314575 150.956854,0.6 149.3,0.6 C147.643146,0.6 146.3,1.94314575 146.3,3.6 L146.3,27.2 C146.3,33.5512746 141.151275,38.7 134.8,38.7 L134.8,44.8 C144.520212,44.8 152.4,36.9202116 152.4,27.2 L152.3,3.6 Z" id="Path" fill="#FF32FF"></path>
            <rect id="Rectangle" fill="#507AFF" x="64.6" y="9.5" width="23.2" height="6.04"></rect>
            <path d="M122.3,39.6 C119.021222,36.3076373 117.186395,31.8464879 117.2,27.2 L111.199978,27.2 C111.184111,38.9710529 119.84458,48.9540569 131.5,50.6 L134.8,50.8 L134.8,44.8 C130.104443,44.8138537 125.6003,42.9401303 122.3,39.6 Z" id="Path" fill="#00B4FF"></path>
            <path d="M130.8,38 C126.246106,36.3583579 123.207791,32.0407518 123.2,27.2 L123.2,3.5 L117.2,3.5 L117.2,27.2 C117.173402,31.8413114 118.991687,36.3030844 122.254836,39.6037412 C125.517986,42.904398 129.958688,44.773554 134.6,44.8 L134.8,44.8 C136.456854,44.8 137.8,43.4568542 137.8,41.8 C137.8,40.1431458 136.456854,38.8 134.8,38.8 C133.469291,38.7940683 132.149708,38.5572201 130.9,38.1" id="Path" fill="#B400C8"></path>
            <rect id="Rectangle" fill="#64DCFF" x="0.1" y="20.9" width="6" height="29.93"></rect>
            <polygon id="Path" fill="#B400C8" points="0.1 3.5 6.2 3.5 6.2 20.9 0.1 20.9"></polygon>
            <rect id="Rectangle" fill="#507AFF" x="6.2" y="3.5" width="6" height="29.9"></rect>
            <path d="M6.2,50.8 L12.2,50.8 L12.2,33.4 C12.2,31.7431458 10.8568542,30.4 9.2,30.4 C7.54314575,30.4 6.2,31.7431458 6.2,33.4" id="Path" fill="#FF32FF"></path>
            <path d="M117.2,3.5 L111.2,3.5 L111.2,27.1 C111.2,28.7568542 112.543146,30.1 114.2,30.1 C115.856854,30.1 117.2,28.7568542 117.2,27.1 L117.2,3.5 Z" id="Path" fill="#64DCFF"></path>
            <path d="M158.3,27.2 L158.3,3.6 C158.3,1.94314575 156.956854,0.6 155.3,0.6 C153.643146,0.6 152.3,1.94314575 152.3,3.6 L152.3,27.2 C152.3,36.9202116 144.420212,44.8 134.7,44.8 L134.7,50.8 L138,50.6 C149.615694,48.9089338 158.222975,38.9381226 158.2,27.2 L158.3,27.2 Z" id="Path" fill="#507AFF"></path>
            <rect id="Rectangle" fill="#FF32FF" x="64.6" y="3.5" width="40.4" height="6.04"></rect>
            <path d="M105,9.5 L87.7,9.5 C86.0431458,9.5 84.7,10.8431458 84.7,12.5 L84.7,30.5 L90.7,30.5 L90.7,15.5 L105,15.5 L105,9.5 Z" id="Path" fill="#B400C8"></path>
            <path d="M90.8,30.6 C90.8,28.9431458 89.4568542,27.6 87.8,27.6 C86.1431458,27.6 84.8,28.9431458 84.8,30.6 L84.8,50.8 L90.8,50.8 L90.8,30.6 Z" id="Path" fill="#64DCFF"></path>
            <path d="M55.9,8.2 C48.7317601,2.85921725 39.1612458,2.0268491 31.1786108,6.04992776 C23.1959758,10.0730064 18.1715017,18.260939 18.1998794,27.2 L24.2,27.2 C24.1714708,20.5335577 27.9119264,14.423179 33.8618696,11.4164462 C39.8118128,8.40971328 46.9498731,9.02276365 52.3,13 L54.3,14.7 L58.5,10.5 C57.6904737,9.671068 56.8214963,8.90235721 55.9,8.2 Z" id="Path" fill="#B400C8"></path>
            <path d="M54.3,39.6 C49.3421242,44.6072883 41.8755572,46.1748071 35.3225688,43.5840907 C28.7695803,40.9933744 24.3934662,34.7438654 24.2,27.7 C24.4018814,26.5880457 23.9560742,25.4577535 23.0494839,24.783 C22.1428935,24.1082465 20.9322004,24.0056454 19.9249897,24.5182124 C18.9177789,25.0307793 18.2881206,26.0699304 18.3,27.2 C18.3304268,36.7347475 24.0952972,45.3144989 32.9114611,48.9459709 C41.727625,52.5774429 51.8628947,50.5471288 58.6,43.8 L54.3,39.6 Z" id="Path" fill="#FF32FF"></path>
            <path d="M51.9,12.7 C46.5262682,8.93446075 39.5039815,8.47098349 33.6819617,11.497593 C27.859942,14.5242026 24.2050449,20.5382736 24.2,27.1 L30.3,27.1 C30.3805739,22.4713756 33.2054882,18.3338073 37.4870238,16.573379 C41.7685595,14.8129506 46.6868798,15.7667524 50,19 L54.3,14.7 C53.560163,13.9642816 52.7570706,13.295038 51.9,12.7 Z" id="Path" fill="#64DCFF"></path>
            <path d="M50,35.3 C46.710152,38.6009435 41.7568438,39.597258 37.4465684,37.8250128 C33.1362929,36.0527675 30.3164141,31.8603711 30.3,27.2 L24.1999971,27.2 C24.1959107,34.3345416 28.49938,40.7657243 35.0960814,43.4833023 C41.6927829,46.2008803 49.2774796,44.667148 54.3,39.6 L50,35.3 Z" id="Path" fill="#507AFF"></path>
        </g>
    </g>
</svg>